%TF.GenerationSoftware,KiCad,Pcbnew,8.0.5*%
%TF.CreationDate,2024-09-23T16:28:14-04:00*%
%TF.ProjectId,ICM-42670-P-Breakout-Board,49434d2d-3432-4363-9730-2d502d427265,rev?*%
%TF.SameCoordinates,Original*%
%TF.FileFunction,Legend,Top*%
%TF.FilePolarity,Positive*%
%FSLAX46Y46*%
G04 Gerber Fmt 4.6, Leading zero omitted, Abs format (unit mm)*
G04 Created by KiCad (PCBNEW 8.0.5) date 2024-09-23 16:28:14*
%MOMM*%
%LPD*%
G01*
G04 APERTURE LIST*
%ADD10C,0.150000*%
%ADD11C,0.100000*%
%ADD12C,0.200000*%
%ADD13C,0.120000*%
%ADD14C,0.160000*%
G04 APERTURE END LIST*
D10*
X142200000Y-85700000D02*
X144020000Y-85700000D01*
X142050000Y-84250000D02*
X142370000Y-84250000D01*
X143650000Y-85870000D02*
X144020000Y-85700000D01*
X143650000Y-85550000D02*
X143650000Y-85870000D01*
X142350000Y-85700000D02*
G75*
G02*
X142050000Y-85700000I-150000J0D01*
G01*
X142050000Y-85700000D02*
G75*
G02*
X142350000Y-85700000I150000J0D01*
G01*
X142370000Y-84250000D02*
X142200000Y-83880000D01*
X142200000Y-85700000D02*
X142200000Y-83880000D01*
X142200000Y-83880000D02*
X142050000Y-84250000D01*
X144020000Y-85700000D02*
X143650000Y-85550000D01*
D11*
X143593047Y-85418109D02*
X143854952Y-85084776D01*
X143593047Y-85084776D02*
X143854952Y-85418109D01*
D12*
X138595238Y-99819695D02*
X138595238Y-99019695D01*
X138976190Y-99819695D02*
X138976190Y-99019695D01*
X138976190Y-99019695D02*
X139433333Y-99819695D01*
X139433333Y-99819695D02*
X139433333Y-99019695D01*
X139699999Y-99019695D02*
X140157142Y-99019695D01*
X139928570Y-99819695D02*
X139928570Y-99019695D01*
X140385713Y-99095885D02*
X140423809Y-99057790D01*
X140423809Y-99057790D02*
X140499999Y-99019695D01*
X140499999Y-99019695D02*
X140690475Y-99019695D01*
X140690475Y-99019695D02*
X140766666Y-99057790D01*
X140766666Y-99057790D02*
X140804761Y-99095885D01*
X140804761Y-99095885D02*
X140842856Y-99172076D01*
X140842856Y-99172076D02*
X140842856Y-99248266D01*
X140842856Y-99248266D02*
X140804761Y-99362552D01*
X140804761Y-99362552D02*
X140347618Y-99819695D01*
X140347618Y-99819695D02*
X140842856Y-99819695D01*
D11*
X148926109Y-95695237D02*
X148426109Y-95695237D01*
X148878490Y-95171428D02*
X148902300Y-95195237D01*
X148902300Y-95195237D02*
X148926109Y-95266666D01*
X148926109Y-95266666D02*
X148926109Y-95314285D01*
X148926109Y-95314285D02*
X148902300Y-95385713D01*
X148902300Y-95385713D02*
X148854680Y-95433332D01*
X148854680Y-95433332D02*
X148807061Y-95457142D01*
X148807061Y-95457142D02*
X148711823Y-95480951D01*
X148711823Y-95480951D02*
X148640395Y-95480951D01*
X148640395Y-95480951D02*
X148545157Y-95457142D01*
X148545157Y-95457142D02*
X148497538Y-95433332D01*
X148497538Y-95433332D02*
X148449919Y-95385713D01*
X148449919Y-95385713D02*
X148426109Y-95314285D01*
X148426109Y-95314285D02*
X148426109Y-95266666D01*
X148426109Y-95266666D02*
X148449919Y-95195237D01*
X148449919Y-95195237D02*
X148473728Y-95171428D01*
X148926109Y-94957142D02*
X148426109Y-94957142D01*
X148426109Y-94957142D02*
X148783252Y-94790475D01*
X148783252Y-94790475D02*
X148426109Y-94623809D01*
X148426109Y-94623809D02*
X148926109Y-94623809D01*
X148735633Y-94385713D02*
X148735633Y-94004761D01*
X148592776Y-93552379D02*
X148926109Y-93552379D01*
X148402300Y-93671427D02*
X148759442Y-93790474D01*
X148759442Y-93790474D02*
X148759442Y-93480951D01*
X148473728Y-93314284D02*
X148449919Y-93290475D01*
X148449919Y-93290475D02*
X148426109Y-93242856D01*
X148426109Y-93242856D02*
X148426109Y-93123808D01*
X148426109Y-93123808D02*
X148449919Y-93076189D01*
X148449919Y-93076189D02*
X148473728Y-93052380D01*
X148473728Y-93052380D02*
X148521347Y-93028570D01*
X148521347Y-93028570D02*
X148568966Y-93028570D01*
X148568966Y-93028570D02*
X148640395Y-93052380D01*
X148640395Y-93052380D02*
X148926109Y-93338094D01*
X148926109Y-93338094D02*
X148926109Y-93028570D01*
X148426109Y-92599999D02*
X148426109Y-92695237D01*
X148426109Y-92695237D02*
X148449919Y-92742856D01*
X148449919Y-92742856D02*
X148473728Y-92766666D01*
X148473728Y-92766666D02*
X148545157Y-92814285D01*
X148545157Y-92814285D02*
X148640395Y-92838094D01*
X148640395Y-92838094D02*
X148830871Y-92838094D01*
X148830871Y-92838094D02*
X148878490Y-92814285D01*
X148878490Y-92814285D02*
X148902300Y-92790475D01*
X148902300Y-92790475D02*
X148926109Y-92742856D01*
X148926109Y-92742856D02*
X148926109Y-92647618D01*
X148926109Y-92647618D02*
X148902300Y-92599999D01*
X148902300Y-92599999D02*
X148878490Y-92576190D01*
X148878490Y-92576190D02*
X148830871Y-92552380D01*
X148830871Y-92552380D02*
X148711823Y-92552380D01*
X148711823Y-92552380D02*
X148664204Y-92576190D01*
X148664204Y-92576190D02*
X148640395Y-92599999D01*
X148640395Y-92599999D02*
X148616585Y-92647618D01*
X148616585Y-92647618D02*
X148616585Y-92742856D01*
X148616585Y-92742856D02*
X148640395Y-92790475D01*
X148640395Y-92790475D02*
X148664204Y-92814285D01*
X148664204Y-92814285D02*
X148711823Y-92838094D01*
X148426109Y-92385714D02*
X148426109Y-92052381D01*
X148426109Y-92052381D02*
X148926109Y-92266666D01*
X148426109Y-91766667D02*
X148426109Y-91719048D01*
X148426109Y-91719048D02*
X148449919Y-91671429D01*
X148449919Y-91671429D02*
X148473728Y-91647619D01*
X148473728Y-91647619D02*
X148521347Y-91623810D01*
X148521347Y-91623810D02*
X148616585Y-91600000D01*
X148616585Y-91600000D02*
X148735633Y-91600000D01*
X148735633Y-91600000D02*
X148830871Y-91623810D01*
X148830871Y-91623810D02*
X148878490Y-91647619D01*
X148878490Y-91647619D02*
X148902300Y-91671429D01*
X148902300Y-91671429D02*
X148926109Y-91719048D01*
X148926109Y-91719048D02*
X148926109Y-91766667D01*
X148926109Y-91766667D02*
X148902300Y-91814286D01*
X148902300Y-91814286D02*
X148878490Y-91838095D01*
X148878490Y-91838095D02*
X148830871Y-91861905D01*
X148830871Y-91861905D02*
X148735633Y-91885714D01*
X148735633Y-91885714D02*
X148616585Y-91885714D01*
X148616585Y-91885714D02*
X148521347Y-91861905D01*
X148521347Y-91861905D02*
X148473728Y-91838095D01*
X148473728Y-91838095D02*
X148449919Y-91814286D01*
X148449919Y-91814286D02*
X148426109Y-91766667D01*
X148735633Y-91385715D02*
X148735633Y-91004763D01*
X148926109Y-90766667D02*
X148426109Y-90766667D01*
X148426109Y-90766667D02*
X148426109Y-90576191D01*
X148426109Y-90576191D02*
X148449919Y-90528572D01*
X148449919Y-90528572D02*
X148473728Y-90504762D01*
X148473728Y-90504762D02*
X148521347Y-90480953D01*
X148521347Y-90480953D02*
X148592776Y-90480953D01*
X148592776Y-90480953D02*
X148640395Y-90504762D01*
X148640395Y-90504762D02*
X148664204Y-90528572D01*
X148664204Y-90528572D02*
X148688014Y-90576191D01*
X148688014Y-90576191D02*
X148688014Y-90766667D01*
D12*
X139058667Y-102391504D02*
X139020571Y-102429600D01*
X139020571Y-102429600D02*
X138906286Y-102467695D01*
X138906286Y-102467695D02*
X138830095Y-102467695D01*
X138830095Y-102467695D02*
X138715809Y-102429600D01*
X138715809Y-102429600D02*
X138639619Y-102353409D01*
X138639619Y-102353409D02*
X138601524Y-102277219D01*
X138601524Y-102277219D02*
X138563428Y-102124838D01*
X138563428Y-102124838D02*
X138563428Y-102010552D01*
X138563428Y-102010552D02*
X138601524Y-101858171D01*
X138601524Y-101858171D02*
X138639619Y-101781980D01*
X138639619Y-101781980D02*
X138715809Y-101705790D01*
X138715809Y-101705790D02*
X138830095Y-101667695D01*
X138830095Y-101667695D02*
X138906286Y-101667695D01*
X138906286Y-101667695D02*
X139020571Y-101705790D01*
X139020571Y-101705790D02*
X139058667Y-101743885D01*
X139363428Y-102429600D02*
X139477714Y-102467695D01*
X139477714Y-102467695D02*
X139668190Y-102467695D01*
X139668190Y-102467695D02*
X139744381Y-102429600D01*
X139744381Y-102429600D02*
X139782476Y-102391504D01*
X139782476Y-102391504D02*
X139820571Y-102315314D01*
X139820571Y-102315314D02*
X139820571Y-102239123D01*
X139820571Y-102239123D02*
X139782476Y-102162933D01*
X139782476Y-102162933D02*
X139744381Y-102124838D01*
X139744381Y-102124838D02*
X139668190Y-102086742D01*
X139668190Y-102086742D02*
X139515809Y-102048647D01*
X139515809Y-102048647D02*
X139439619Y-102010552D01*
X139439619Y-102010552D02*
X139401524Y-101972457D01*
X139401524Y-101972457D02*
X139363428Y-101896266D01*
X139363428Y-101896266D02*
X139363428Y-101820076D01*
X139363428Y-101820076D02*
X139401524Y-101743885D01*
X139401524Y-101743885D02*
X139439619Y-101705790D01*
X139439619Y-101705790D02*
X139515809Y-101667695D01*
X139515809Y-101667695D02*
X139706286Y-101667695D01*
X139706286Y-101667695D02*
X139820571Y-101705790D01*
X138595238Y-97249695D02*
X138595238Y-96449695D01*
X138976190Y-97249695D02*
X138976190Y-96449695D01*
X138976190Y-96449695D02*
X139433333Y-97249695D01*
X139433333Y-97249695D02*
X139433333Y-96449695D01*
X139699999Y-96449695D02*
X140157142Y-96449695D01*
X139928570Y-97249695D02*
X139928570Y-96449695D01*
X140842856Y-97249695D02*
X140385713Y-97249695D01*
X140614285Y-97249695D02*
X140614285Y-96449695D01*
X140614285Y-96449695D02*
X140538094Y-96563980D01*
X140538094Y-96563980D02*
X140461904Y-96640171D01*
X140461904Y-96640171D02*
X140385713Y-96678266D01*
X139033428Y-104490647D02*
X138766762Y-104490647D01*
X138766762Y-104909695D02*
X138766762Y-104109695D01*
X138766762Y-104109695D02*
X139147714Y-104109695D01*
X139414380Y-104871600D02*
X139528666Y-104909695D01*
X139528666Y-104909695D02*
X139719142Y-104909695D01*
X139719142Y-104909695D02*
X139795333Y-104871600D01*
X139795333Y-104871600D02*
X139833428Y-104833504D01*
X139833428Y-104833504D02*
X139871523Y-104757314D01*
X139871523Y-104757314D02*
X139871523Y-104681123D01*
X139871523Y-104681123D02*
X139833428Y-104604933D01*
X139833428Y-104604933D02*
X139795333Y-104566838D01*
X139795333Y-104566838D02*
X139719142Y-104528742D01*
X139719142Y-104528742D02*
X139566761Y-104490647D01*
X139566761Y-104490647D02*
X139490571Y-104452552D01*
X139490571Y-104452552D02*
X139452476Y-104414457D01*
X139452476Y-104414457D02*
X139414380Y-104338266D01*
X139414380Y-104338266D02*
X139414380Y-104262076D01*
X139414380Y-104262076D02*
X139452476Y-104185885D01*
X139452476Y-104185885D02*
X139490571Y-104147790D01*
X139490571Y-104147790D02*
X139566761Y-104109695D01*
X139566761Y-104109695D02*
X139757238Y-104109695D01*
X139757238Y-104109695D02*
X139871523Y-104147790D01*
X140366762Y-104528742D02*
X140366762Y-104909695D01*
X140100095Y-104109695D02*
X140366762Y-104528742D01*
X140366762Y-104528742D02*
X140633428Y-104109695D01*
X140900095Y-104909695D02*
X140900095Y-104109695D01*
X140900095Y-104109695D02*
X141357238Y-104909695D01*
X141357238Y-104909695D02*
X141357238Y-104109695D01*
X142195333Y-104833504D02*
X142157237Y-104871600D01*
X142157237Y-104871600D02*
X142042952Y-104909695D01*
X142042952Y-104909695D02*
X141966761Y-104909695D01*
X141966761Y-104909695D02*
X141852475Y-104871600D01*
X141852475Y-104871600D02*
X141776285Y-104795409D01*
X141776285Y-104795409D02*
X141738190Y-104719219D01*
X141738190Y-104719219D02*
X141700094Y-104566838D01*
X141700094Y-104566838D02*
X141700094Y-104452552D01*
X141700094Y-104452552D02*
X141738190Y-104300171D01*
X141738190Y-104300171D02*
X141776285Y-104223980D01*
X141776285Y-104223980D02*
X141852475Y-104147790D01*
X141852475Y-104147790D02*
X141966761Y-104109695D01*
X141966761Y-104109695D02*
X142042952Y-104109695D01*
X142042952Y-104109695D02*
X142157237Y-104147790D01*
X142157237Y-104147790D02*
X142195333Y-104185885D01*
X138459958Y-89631600D02*
X138574244Y-89669695D01*
X138574244Y-89669695D02*
X138764720Y-89669695D01*
X138764720Y-89669695D02*
X138840911Y-89631600D01*
X138840911Y-89631600D02*
X138879006Y-89593504D01*
X138879006Y-89593504D02*
X138917101Y-89517314D01*
X138917101Y-89517314D02*
X138917101Y-89441123D01*
X138917101Y-89441123D02*
X138879006Y-89364933D01*
X138879006Y-89364933D02*
X138840911Y-89326838D01*
X138840911Y-89326838D02*
X138764720Y-89288742D01*
X138764720Y-89288742D02*
X138612339Y-89250647D01*
X138612339Y-89250647D02*
X138536149Y-89212552D01*
X138536149Y-89212552D02*
X138498054Y-89174457D01*
X138498054Y-89174457D02*
X138459958Y-89098266D01*
X138459958Y-89098266D02*
X138459958Y-89022076D01*
X138459958Y-89022076D02*
X138498054Y-88945885D01*
X138498054Y-88945885D02*
X138536149Y-88907790D01*
X138536149Y-88907790D02*
X138612339Y-88869695D01*
X138612339Y-88869695D02*
X138802816Y-88869695D01*
X138802816Y-88869695D02*
X138917101Y-88907790D01*
X139717102Y-89593504D02*
X139679006Y-89631600D01*
X139679006Y-89631600D02*
X139564721Y-89669695D01*
X139564721Y-89669695D02*
X139488530Y-89669695D01*
X139488530Y-89669695D02*
X139374244Y-89631600D01*
X139374244Y-89631600D02*
X139298054Y-89555409D01*
X139298054Y-89555409D02*
X139259959Y-89479219D01*
X139259959Y-89479219D02*
X139221863Y-89326838D01*
X139221863Y-89326838D02*
X139221863Y-89212552D01*
X139221863Y-89212552D02*
X139259959Y-89060171D01*
X139259959Y-89060171D02*
X139298054Y-88983980D01*
X139298054Y-88983980D02*
X139374244Y-88907790D01*
X139374244Y-88907790D02*
X139488530Y-88869695D01*
X139488530Y-88869695D02*
X139564721Y-88869695D01*
X139564721Y-88869695D02*
X139679006Y-88907790D01*
X139679006Y-88907790D02*
X139717102Y-88945885D01*
X140440911Y-89669695D02*
X140059959Y-89669695D01*
X140059959Y-89669695D02*
X140059959Y-88869695D01*
X140936149Y-89974457D02*
X140898054Y-89936361D01*
X140898054Y-89936361D02*
X140821863Y-89822076D01*
X140821863Y-89822076D02*
X140783768Y-89745885D01*
X140783768Y-89745885D02*
X140745673Y-89631600D01*
X140745673Y-89631600D02*
X140707578Y-89441123D01*
X140707578Y-89441123D02*
X140707578Y-89288742D01*
X140707578Y-89288742D02*
X140745673Y-89098266D01*
X140745673Y-89098266D02*
X140783768Y-88983980D01*
X140783768Y-88983980D02*
X140821863Y-88907790D01*
X140821863Y-88907790D02*
X140898054Y-88793504D01*
X140898054Y-88793504D02*
X140936149Y-88755409D01*
X141240911Y-89669695D02*
X141240911Y-88869695D01*
X141698054Y-89669695D02*
X141355196Y-89212552D01*
X141698054Y-88869695D02*
X141240911Y-89326838D01*
X141964720Y-89974457D02*
X142002815Y-89936361D01*
X142002815Y-89936361D02*
X142079006Y-89822076D01*
X142079006Y-89822076D02*
X142117101Y-89745885D01*
X142117101Y-89745885D02*
X142155196Y-89631600D01*
X142155196Y-89631600D02*
X142193292Y-89441123D01*
X142193292Y-89441123D02*
X142193292Y-89288742D01*
X142193292Y-89288742D02*
X142155196Y-89098266D01*
X142155196Y-89098266D02*
X142117101Y-88983980D01*
X142117101Y-88983980D02*
X142079006Y-88907790D01*
X142079006Y-88907790D02*
X142002815Y-88793504D01*
X142002815Y-88793504D02*
X141964720Y-88755409D01*
X138455523Y-83799695D02*
X138950761Y-83799695D01*
X138950761Y-83799695D02*
X138684095Y-84104457D01*
X138684095Y-84104457D02*
X138798380Y-84104457D01*
X138798380Y-84104457D02*
X138874571Y-84142552D01*
X138874571Y-84142552D02*
X138912666Y-84180647D01*
X138912666Y-84180647D02*
X138950761Y-84256838D01*
X138950761Y-84256838D02*
X138950761Y-84447314D01*
X138950761Y-84447314D02*
X138912666Y-84523504D01*
X138912666Y-84523504D02*
X138874571Y-84561600D01*
X138874571Y-84561600D02*
X138798380Y-84599695D01*
X138798380Y-84599695D02*
X138569809Y-84599695D01*
X138569809Y-84599695D02*
X138493618Y-84561600D01*
X138493618Y-84561600D02*
X138455523Y-84523504D01*
X139179333Y-83799695D02*
X139446000Y-84599695D01*
X139446000Y-84599695D02*
X139712666Y-83799695D01*
X139903142Y-83799695D02*
X140398380Y-83799695D01*
X140398380Y-83799695D02*
X140131714Y-84104457D01*
X140131714Y-84104457D02*
X140245999Y-84104457D01*
X140245999Y-84104457D02*
X140322190Y-84142552D01*
X140322190Y-84142552D02*
X140360285Y-84180647D01*
X140360285Y-84180647D02*
X140398380Y-84256838D01*
X140398380Y-84256838D02*
X140398380Y-84447314D01*
X140398380Y-84447314D02*
X140360285Y-84523504D01*
X140360285Y-84523504D02*
X140322190Y-84561600D01*
X140322190Y-84561600D02*
X140245999Y-84599695D01*
X140245999Y-84599695D02*
X140017428Y-84599695D01*
X140017428Y-84599695D02*
X139941237Y-84561600D01*
X139941237Y-84561600D02*
X139903142Y-84523504D01*
X138836476Y-86277790D02*
X138760286Y-86239695D01*
X138760286Y-86239695D02*
X138646000Y-86239695D01*
X138646000Y-86239695D02*
X138531714Y-86277790D01*
X138531714Y-86277790D02*
X138455524Y-86353980D01*
X138455524Y-86353980D02*
X138417429Y-86430171D01*
X138417429Y-86430171D02*
X138379333Y-86582552D01*
X138379333Y-86582552D02*
X138379333Y-86696838D01*
X138379333Y-86696838D02*
X138417429Y-86849219D01*
X138417429Y-86849219D02*
X138455524Y-86925409D01*
X138455524Y-86925409D02*
X138531714Y-87001600D01*
X138531714Y-87001600D02*
X138646000Y-87039695D01*
X138646000Y-87039695D02*
X138722191Y-87039695D01*
X138722191Y-87039695D02*
X138836476Y-87001600D01*
X138836476Y-87001600D02*
X138874572Y-86963504D01*
X138874572Y-86963504D02*
X138874572Y-86696838D01*
X138874572Y-86696838D02*
X138722191Y-86696838D01*
X139217429Y-87039695D02*
X139217429Y-86239695D01*
X139217429Y-86239695D02*
X139674572Y-87039695D01*
X139674572Y-87039695D02*
X139674572Y-86239695D01*
X140055524Y-87039695D02*
X140055524Y-86239695D01*
X140055524Y-86239695D02*
X140246000Y-86239695D01*
X140246000Y-86239695D02*
X140360286Y-86277790D01*
X140360286Y-86277790D02*
X140436476Y-86353980D01*
X140436476Y-86353980D02*
X140474571Y-86430171D01*
X140474571Y-86430171D02*
X140512667Y-86582552D01*
X140512667Y-86582552D02*
X140512667Y-86696838D01*
X140512667Y-86696838D02*
X140474571Y-86849219D01*
X140474571Y-86849219D02*
X140436476Y-86925409D01*
X140436476Y-86925409D02*
X140360286Y-87001600D01*
X140360286Y-87001600D02*
X140246000Y-87039695D01*
X140246000Y-87039695D02*
X140055524Y-87039695D01*
X138543958Y-91517623D02*
X138658244Y-91555718D01*
X138658244Y-91555718D02*
X138848720Y-91555718D01*
X138848720Y-91555718D02*
X138924911Y-91517623D01*
X138924911Y-91517623D02*
X138963006Y-91479527D01*
X138963006Y-91479527D02*
X139001101Y-91403337D01*
X139001101Y-91403337D02*
X139001101Y-91327146D01*
X139001101Y-91327146D02*
X138963006Y-91250956D01*
X138963006Y-91250956D02*
X138924911Y-91212861D01*
X138924911Y-91212861D02*
X138848720Y-91174765D01*
X138848720Y-91174765D02*
X138696339Y-91136670D01*
X138696339Y-91136670D02*
X138620149Y-91098575D01*
X138620149Y-91098575D02*
X138582054Y-91060480D01*
X138582054Y-91060480D02*
X138543958Y-90984289D01*
X138543958Y-90984289D02*
X138543958Y-90908099D01*
X138543958Y-90908099D02*
X138582054Y-90831908D01*
X138582054Y-90831908D02*
X138620149Y-90793813D01*
X138620149Y-90793813D02*
X138696339Y-90755718D01*
X138696339Y-90755718D02*
X138886816Y-90755718D01*
X138886816Y-90755718D02*
X139001101Y-90793813D01*
X139343959Y-91555718D02*
X139343959Y-90755718D01*
X139343959Y-90755718D02*
X139534435Y-90755718D01*
X139534435Y-90755718D02*
X139648721Y-90793813D01*
X139648721Y-90793813D02*
X139724911Y-90870003D01*
X139724911Y-90870003D02*
X139763006Y-90946194D01*
X139763006Y-90946194D02*
X139801102Y-91098575D01*
X139801102Y-91098575D02*
X139801102Y-91212861D01*
X139801102Y-91212861D02*
X139763006Y-91365242D01*
X139763006Y-91365242D02*
X139724911Y-91441432D01*
X139724911Y-91441432D02*
X139648721Y-91517623D01*
X139648721Y-91517623D02*
X139534435Y-91555718D01*
X139534435Y-91555718D02*
X139343959Y-91555718D01*
X140105863Y-91327146D02*
X140486816Y-91327146D01*
X140029673Y-91555718D02*
X140296340Y-90755718D01*
X140296340Y-90755718D02*
X140563006Y-91555718D01*
X138543958Y-92805578D02*
X138658244Y-92843673D01*
X138658244Y-92843673D02*
X138848720Y-92843673D01*
X138848720Y-92843673D02*
X138924911Y-92805578D01*
X138924911Y-92805578D02*
X138963006Y-92767482D01*
X138963006Y-92767482D02*
X139001101Y-92691292D01*
X139001101Y-92691292D02*
X139001101Y-92615101D01*
X139001101Y-92615101D02*
X138963006Y-92538911D01*
X138963006Y-92538911D02*
X138924911Y-92500816D01*
X138924911Y-92500816D02*
X138848720Y-92462720D01*
X138848720Y-92462720D02*
X138696339Y-92424625D01*
X138696339Y-92424625D02*
X138620149Y-92386530D01*
X138620149Y-92386530D02*
X138582054Y-92348435D01*
X138582054Y-92348435D02*
X138543958Y-92272244D01*
X138543958Y-92272244D02*
X138543958Y-92196054D01*
X138543958Y-92196054D02*
X138582054Y-92119863D01*
X138582054Y-92119863D02*
X138620149Y-92081768D01*
X138620149Y-92081768D02*
X138696339Y-92043673D01*
X138696339Y-92043673D02*
X138886816Y-92043673D01*
X138886816Y-92043673D02*
X139001101Y-92081768D01*
X139343959Y-92843673D02*
X139343959Y-92043673D01*
X139343959Y-92043673D02*
X139534435Y-92043673D01*
X139534435Y-92043673D02*
X139648721Y-92081768D01*
X139648721Y-92081768D02*
X139724911Y-92157958D01*
X139724911Y-92157958D02*
X139763006Y-92234149D01*
X139763006Y-92234149D02*
X139801102Y-92386530D01*
X139801102Y-92386530D02*
X139801102Y-92500816D01*
X139801102Y-92500816D02*
X139763006Y-92653197D01*
X139763006Y-92653197D02*
X139724911Y-92729387D01*
X139724911Y-92729387D02*
X139648721Y-92805578D01*
X139648721Y-92805578D02*
X139534435Y-92843673D01*
X139534435Y-92843673D02*
X139343959Y-92843673D01*
X140143959Y-92843673D02*
X140143959Y-92043673D01*
D11*
X141670952Y-83882776D02*
X141790000Y-84216109D01*
X141909047Y-83882776D02*
X141790000Y-84216109D01*
X141790000Y-84216109D02*
X141742381Y-84335157D01*
X141742381Y-84335157D02*
X141718571Y-84358966D01*
X141718571Y-84358966D02*
X141670952Y-84382776D01*
X141619047Y-85552776D02*
X141880952Y-85552776D01*
X141880952Y-85552776D02*
X141619047Y-85886109D01*
X141619047Y-85886109D02*
X141880952Y-85886109D01*
D12*
X138560476Y-94774600D02*
X138703333Y-94822219D01*
X138703333Y-94822219D02*
X138941428Y-94822219D01*
X138941428Y-94822219D02*
X139036666Y-94774600D01*
X139036666Y-94774600D02*
X139084285Y-94726980D01*
X139084285Y-94726980D02*
X139131904Y-94631742D01*
X139131904Y-94631742D02*
X139131904Y-94536504D01*
X139131904Y-94536504D02*
X139084285Y-94441266D01*
X139084285Y-94441266D02*
X139036666Y-94393647D01*
X139036666Y-94393647D02*
X138941428Y-94346028D01*
X138941428Y-94346028D02*
X138750952Y-94298409D01*
X138750952Y-94298409D02*
X138655714Y-94250790D01*
X138655714Y-94250790D02*
X138608095Y-94203171D01*
X138608095Y-94203171D02*
X138560476Y-94107933D01*
X138560476Y-94107933D02*
X138560476Y-94012695D01*
X138560476Y-94012695D02*
X138608095Y-93917457D01*
X138608095Y-93917457D02*
X138655714Y-93869838D01*
X138655714Y-93869838D02*
X138750952Y-93822219D01*
X138750952Y-93822219D02*
X138989047Y-93822219D01*
X138989047Y-93822219D02*
X139131904Y-93869838D01*
X139560476Y-94822219D02*
X139560476Y-93822219D01*
X139560476Y-93822219D02*
X139798571Y-93822219D01*
X139798571Y-93822219D02*
X139941428Y-93869838D01*
X139941428Y-93869838D02*
X140036666Y-93965076D01*
X140036666Y-93965076D02*
X140084285Y-94060314D01*
X140084285Y-94060314D02*
X140131904Y-94250790D01*
X140131904Y-94250790D02*
X140131904Y-94393647D01*
X140131904Y-94393647D02*
X140084285Y-94584123D01*
X140084285Y-94584123D02*
X140036666Y-94679361D01*
X140036666Y-94679361D02*
X139941428Y-94774600D01*
X139941428Y-94774600D02*
X139798571Y-94822219D01*
X139798571Y-94822219D02*
X139560476Y-94822219D01*
X140750952Y-93822219D02*
X140941428Y-93822219D01*
X140941428Y-93822219D02*
X141036666Y-93869838D01*
X141036666Y-93869838D02*
X141131904Y-93965076D01*
X141131904Y-93965076D02*
X141179523Y-94155552D01*
X141179523Y-94155552D02*
X141179523Y-94488885D01*
X141179523Y-94488885D02*
X141131904Y-94679361D01*
X141131904Y-94679361D02*
X141036666Y-94774600D01*
X141036666Y-94774600D02*
X140941428Y-94822219D01*
X140941428Y-94822219D02*
X140750952Y-94822219D01*
X140750952Y-94822219D02*
X140655714Y-94774600D01*
X140655714Y-94774600D02*
X140560476Y-94679361D01*
X140560476Y-94679361D02*
X140512857Y-94488885D01*
X140512857Y-94488885D02*
X140512857Y-94155552D01*
X140512857Y-94155552D02*
X140560476Y-93965076D01*
X140560476Y-93965076D02*
X140655714Y-93869838D01*
X140655714Y-93869838D02*
X140750952Y-93822219D01*
D11*
X147478490Y-94683333D02*
X147502300Y-94707142D01*
X147502300Y-94707142D02*
X147526109Y-94778571D01*
X147526109Y-94778571D02*
X147526109Y-94826190D01*
X147526109Y-94826190D02*
X147502300Y-94897618D01*
X147502300Y-94897618D02*
X147454680Y-94945237D01*
X147454680Y-94945237D02*
X147407061Y-94969047D01*
X147407061Y-94969047D02*
X147311823Y-94992856D01*
X147311823Y-94992856D02*
X147240395Y-94992856D01*
X147240395Y-94992856D02*
X147145157Y-94969047D01*
X147145157Y-94969047D02*
X147097538Y-94945237D01*
X147097538Y-94945237D02*
X147049919Y-94897618D01*
X147049919Y-94897618D02*
X147026109Y-94826190D01*
X147026109Y-94826190D02*
X147026109Y-94778571D01*
X147026109Y-94778571D02*
X147049919Y-94707142D01*
X147049919Y-94707142D02*
X147073728Y-94683333D01*
X147526109Y-94207142D02*
X147526109Y-94492856D01*
X147526109Y-94349999D02*
X147026109Y-94349999D01*
X147026109Y-94349999D02*
X147097538Y-94397618D01*
X147097538Y-94397618D02*
X147145157Y-94445237D01*
X147145157Y-94445237D02*
X147168966Y-94492856D01*
X147278490Y-89480833D02*
X147302300Y-89504642D01*
X147302300Y-89504642D02*
X147326109Y-89576071D01*
X147326109Y-89576071D02*
X147326109Y-89623690D01*
X147326109Y-89623690D02*
X147302300Y-89695118D01*
X147302300Y-89695118D02*
X147254680Y-89742737D01*
X147254680Y-89742737D02*
X147207061Y-89766547D01*
X147207061Y-89766547D02*
X147111823Y-89790356D01*
X147111823Y-89790356D02*
X147040395Y-89790356D01*
X147040395Y-89790356D02*
X146945157Y-89766547D01*
X146945157Y-89766547D02*
X146897538Y-89742737D01*
X146897538Y-89742737D02*
X146849919Y-89695118D01*
X146849919Y-89695118D02*
X146826109Y-89623690D01*
X146826109Y-89623690D02*
X146826109Y-89576071D01*
X146826109Y-89576071D02*
X146849919Y-89504642D01*
X146849919Y-89504642D02*
X146873728Y-89480833D01*
X146873728Y-89290356D02*
X146849919Y-89266547D01*
X146849919Y-89266547D02*
X146826109Y-89218928D01*
X146826109Y-89218928D02*
X146826109Y-89099880D01*
X146826109Y-89099880D02*
X146849919Y-89052261D01*
X146849919Y-89052261D02*
X146873728Y-89028452D01*
X146873728Y-89028452D02*
X146921347Y-89004642D01*
X146921347Y-89004642D02*
X146968966Y-89004642D01*
X146968966Y-89004642D02*
X147040395Y-89028452D01*
X147040395Y-89028452D02*
X147326109Y-89314166D01*
X147326109Y-89314166D02*
X147326109Y-89004642D01*
X143561905Y-92726109D02*
X143561905Y-92226109D01*
X144085714Y-92678490D02*
X144061905Y-92702300D01*
X144061905Y-92702300D02*
X143990476Y-92726109D01*
X143990476Y-92726109D02*
X143942857Y-92726109D01*
X143942857Y-92726109D02*
X143871429Y-92702300D01*
X143871429Y-92702300D02*
X143823810Y-92654680D01*
X143823810Y-92654680D02*
X143800000Y-92607061D01*
X143800000Y-92607061D02*
X143776191Y-92511823D01*
X143776191Y-92511823D02*
X143776191Y-92440395D01*
X143776191Y-92440395D02*
X143800000Y-92345157D01*
X143800000Y-92345157D02*
X143823810Y-92297538D01*
X143823810Y-92297538D02*
X143871429Y-92249919D01*
X143871429Y-92249919D02*
X143942857Y-92226109D01*
X143942857Y-92226109D02*
X143990476Y-92226109D01*
X143990476Y-92226109D02*
X144061905Y-92249919D01*
X144061905Y-92249919D02*
X144085714Y-92273728D01*
X144561905Y-92726109D02*
X144276191Y-92726109D01*
X144419048Y-92726109D02*
X144419048Y-92226109D01*
X144419048Y-92226109D02*
X144371429Y-92297538D01*
X144371429Y-92297538D02*
X144323810Y-92345157D01*
X144323810Y-92345157D02*
X144276191Y-92368966D01*
X142626109Y-102083333D02*
X142388014Y-102249999D01*
X142626109Y-102369047D02*
X142126109Y-102369047D01*
X142126109Y-102369047D02*
X142126109Y-102178571D01*
X142126109Y-102178571D02*
X142149919Y-102130952D01*
X142149919Y-102130952D02*
X142173728Y-102107142D01*
X142173728Y-102107142D02*
X142221347Y-102083333D01*
X142221347Y-102083333D02*
X142292776Y-102083333D01*
X142292776Y-102083333D02*
X142340395Y-102107142D01*
X142340395Y-102107142D02*
X142364204Y-102130952D01*
X142364204Y-102130952D02*
X142388014Y-102178571D01*
X142388014Y-102178571D02*
X142388014Y-102369047D01*
X142173728Y-101892856D02*
X142149919Y-101869047D01*
X142149919Y-101869047D02*
X142126109Y-101821428D01*
X142126109Y-101821428D02*
X142126109Y-101702380D01*
X142126109Y-101702380D02*
X142149919Y-101654761D01*
X142149919Y-101654761D02*
X142173728Y-101630952D01*
X142173728Y-101630952D02*
X142221347Y-101607142D01*
X142221347Y-101607142D02*
X142268966Y-101607142D01*
X142268966Y-101607142D02*
X142340395Y-101630952D01*
X142340395Y-101630952D02*
X142626109Y-101916666D01*
X142626109Y-101916666D02*
X142626109Y-101607142D01*
X142854166Y-95842490D02*
X142830357Y-95866300D01*
X142830357Y-95866300D02*
X142758928Y-95890109D01*
X142758928Y-95890109D02*
X142711309Y-95890109D01*
X142711309Y-95890109D02*
X142639881Y-95866300D01*
X142639881Y-95866300D02*
X142592262Y-95818680D01*
X142592262Y-95818680D02*
X142568452Y-95771061D01*
X142568452Y-95771061D02*
X142544643Y-95675823D01*
X142544643Y-95675823D02*
X142544643Y-95604395D01*
X142544643Y-95604395D02*
X142568452Y-95509157D01*
X142568452Y-95509157D02*
X142592262Y-95461538D01*
X142592262Y-95461538D02*
X142639881Y-95413919D01*
X142639881Y-95413919D02*
X142711309Y-95390109D01*
X142711309Y-95390109D02*
X142758928Y-95390109D01*
X142758928Y-95390109D02*
X142830357Y-95413919D01*
X142830357Y-95413919D02*
X142854166Y-95437728D01*
X143020833Y-95390109D02*
X143330357Y-95390109D01*
X143330357Y-95390109D02*
X143163690Y-95580585D01*
X143163690Y-95580585D02*
X143235119Y-95580585D01*
X143235119Y-95580585D02*
X143282738Y-95604395D01*
X143282738Y-95604395D02*
X143306547Y-95628204D01*
X143306547Y-95628204D02*
X143330357Y-95675823D01*
X143330357Y-95675823D02*
X143330357Y-95794871D01*
X143330357Y-95794871D02*
X143306547Y-95842490D01*
X143306547Y-95842490D02*
X143282738Y-95866300D01*
X143282738Y-95866300D02*
X143235119Y-95890109D01*
X143235119Y-95890109D02*
X143092262Y-95890109D01*
X143092262Y-95890109D02*
X143044643Y-95866300D01*
X143044643Y-95866300D02*
X143020833Y-95842490D01*
X145226109Y-97783333D02*
X144988014Y-97949999D01*
X145226109Y-98069047D02*
X144726109Y-98069047D01*
X144726109Y-98069047D02*
X144726109Y-97878571D01*
X144726109Y-97878571D02*
X144749919Y-97830952D01*
X144749919Y-97830952D02*
X144773728Y-97807142D01*
X144773728Y-97807142D02*
X144821347Y-97783333D01*
X144821347Y-97783333D02*
X144892776Y-97783333D01*
X144892776Y-97783333D02*
X144940395Y-97807142D01*
X144940395Y-97807142D02*
X144964204Y-97830952D01*
X144964204Y-97830952D02*
X144988014Y-97878571D01*
X144988014Y-97878571D02*
X144988014Y-98069047D01*
X145226109Y-97307142D02*
X145226109Y-97592856D01*
X145226109Y-97449999D02*
X144726109Y-97449999D01*
X144726109Y-97449999D02*
X144797538Y-97497618D01*
X144797538Y-97497618D02*
X144845157Y-97545237D01*
X144845157Y-97545237D02*
X144868966Y-97592856D01*
D13*
%TO.C,C1*%
X146565000Y-94338748D02*
X146565000Y-94861252D01*
X148035000Y-94338748D02*
X148035000Y-94861252D01*
%TO.C,C2*%
X146365000Y-89661252D02*
X146365000Y-89138748D01*
X147835000Y-89661252D02*
X147835000Y-89138748D01*
D11*
%TO.C,IC1*%
X142600000Y-93700000D02*
X142600000Y-93500000D01*
X142600000Y-93700000D02*
X143300000Y-93700000D01*
X145500000Y-93500000D02*
X145500000Y-93700000D01*
X142600000Y-91500000D02*
X142600000Y-91300000D01*
X144800000Y-91300000D02*
X145500000Y-91300000D01*
X145500000Y-91500000D02*
X145500000Y-91300000D01*
X142600000Y-91300000D02*
X143300000Y-91300000D01*
X145500000Y-93700000D02*
X144800000Y-93700000D01*
D14*
X142230000Y-91700000D02*
G75*
G02*
X142070000Y-91700000I-80000J0D01*
G01*
X142070000Y-91700000D02*
G75*
G02*
X142230000Y-91700000I80000J0D01*
G01*
D13*
%TO.C,R2*%
X142172936Y-102735000D02*
X142627064Y-102735000D01*
X142172936Y-101265000D02*
X142627064Y-101265000D01*
%TO.C,J1*%
X135540000Y-85490000D02*
X138200000Y-85490000D01*
X135540000Y-82890000D02*
X136870000Y-82890000D01*
X135540000Y-84220000D02*
X135540000Y-82890000D01*
X138200000Y-85490000D02*
X138200000Y-105870000D01*
X135540000Y-105870000D02*
X138200000Y-105870000D01*
X135540000Y-85490000D02*
X135540000Y-105870000D01*
%TO.C,C3*%
X142676248Y-96399000D02*
X143198752Y-96399000D01*
X142676248Y-94929000D02*
X143198752Y-94929000D01*
%TO.C,R1*%
X145227064Y-98435000D02*
X144772936Y-98435000D01*
X145227064Y-96965000D02*
X144772936Y-96965000D01*
%TD*%
M02*
