M48
; DRILL file {KiCad 8.0.5} date 2024-09-23T16:28:09-0400
; FORMAT={-:-/ absolute / inch / decimal}
; #@! TF.CreationDate,2024-09-23T16:28:09-04:00
; #@! TF.GenerationSoftware,Kicad,Pcbnew,8.0.5
; #@! TF.FileFunction,MixedPlating,1,2
FMAT,2
INCH
; #@! TA.AperFunction,Plated,PTH,ViaDrill
T1C0.0157
; #@! TA.AperFunction,Plated,PTH,ComponentDrill
T2C0.0394
; #@! TA.AperFunction,Plated,PTH,ComponentDrill
T3C0.0866
%
G90
G05
T1
X5.4597Y-3.9488
X5.5118Y-3.8504
X5.5748Y-3.6417
X5.626Y-3.8976
X5.6732Y-3.4567
X5.685Y-3.5276
X5.7283Y-3.7756
X5.7521Y-3.6387
X5.811Y-3.815
T2
X5.3886Y-3.3157
X5.3886Y-3.4157
X5.3886Y-3.5157
X5.3886Y-3.6157
X5.3886Y-3.7157
X5.3886Y-3.8157
X5.3886Y-3.9157
X5.3886Y-4.0157
X5.3886Y-4.1157
T3
X5.772Y-3.3421
X5.772Y-4.089
M30
