%TF.GenerationSoftware,KiCad,Pcbnew,8.0.5*%
%TF.CreationDate,2024-09-23T16:28:14-04:00*%
%TF.ProjectId,ICM-42670-P-Breakout-Board,49434d2d-3432-4363-9730-2d502d427265,rev?*%
%TF.SameCoordinates,Original*%
%TF.FileFunction,Copper,L1,Top*%
%TF.FilePolarity,Positive*%
%FSLAX46Y46*%
G04 Gerber Fmt 4.6, Leading zero omitted, Abs format (unit mm)*
G04 Created by KiCad (PCBNEW 8.0.5) date 2024-09-23 16:28:14*
%MOMM*%
%LPD*%
G01*
G04 APERTURE LIST*
G04 Aperture macros list*
%AMRoundRect*
0 Rectangle with rounded corners*
0 $1 Rounding radius*
0 $2 $3 $4 $5 $6 $7 $8 $9 X,Y pos of 4 corners*
0 Add a 4 corners polygon primitive as box body*
4,1,4,$2,$3,$4,$5,$6,$7,$8,$9,$2,$3,0*
0 Add four circle primitives for the rounded corners*
1,1,$1+$1,$2,$3*
1,1,$1+$1,$4,$5*
1,1,$1+$1,$6,$7*
1,1,$1+$1,$8,$9*
0 Add four rect primitives between the rounded corners*
20,1,$1+$1,$2,$3,$4,$5,0*
20,1,$1+$1,$4,$5,$6,$7,0*
20,1,$1+$1,$6,$7,$8,$9,0*
20,1,$1+$1,$8,$9,$2,$3,0*%
G04 Aperture macros list end*
%TA.AperFunction,SMDPad,CuDef*%
%ADD10RoundRect,0.250000X-0.475000X0.337500X-0.475000X-0.337500X0.475000X-0.337500X0.475000X0.337500X0*%
%TD*%
%TA.AperFunction,SMDPad,CuDef*%
%ADD11RoundRect,0.250000X0.475000X-0.337500X0.475000X0.337500X-0.475000X0.337500X-0.475000X-0.337500X0*%
%TD*%
%TA.AperFunction,SMDPad,CuDef*%
%ADD12R,0.600000X0.300000*%
%TD*%
%TA.AperFunction,SMDPad,CuDef*%
%ADD13R,0.300000X0.600000*%
%TD*%
%TA.AperFunction,ConnectorPad*%
%ADD14C,3.800000*%
%TD*%
%TA.AperFunction,ComponentPad*%
%ADD15C,2.600000*%
%TD*%
%TA.AperFunction,SMDPad,CuDef*%
%ADD16RoundRect,0.250000X-0.350000X-0.450000X0.350000X-0.450000X0.350000X0.450000X-0.350000X0.450000X0*%
%TD*%
%TA.AperFunction,ComponentPad*%
%ADD17R,1.700000X1.700000*%
%TD*%
%TA.AperFunction,ComponentPad*%
%ADD18O,1.700000X1.700000*%
%TD*%
%TA.AperFunction,SMDPad,CuDef*%
%ADD19RoundRect,0.250000X-0.337500X-0.475000X0.337500X-0.475000X0.337500X0.475000X-0.337500X0.475000X0*%
%TD*%
%TA.AperFunction,SMDPad,CuDef*%
%ADD20RoundRect,0.250000X0.350000X0.450000X-0.350000X0.450000X-0.350000X-0.450000X0.350000X-0.450000X0*%
%TD*%
%TA.AperFunction,ViaPad*%
%ADD21C,0.800000*%
%TD*%
%TA.AperFunction,Conductor*%
%ADD22C,0.250000*%
%TD*%
G04 APERTURE END LIST*
D10*
%TO.P,C1,1*%
%TO.N,/VCC*%
X147300000Y-93562500D03*
%TO.P,C1,2*%
%TO.N,GND*%
X147300000Y-95637500D03*
%TD*%
D11*
%TO.P,C2,1*%
%TO.N,/VCC*%
X147100000Y-90437500D03*
%TO.P,C2,2*%
%TO.N,GND*%
X147100000Y-88362500D03*
%TD*%
D12*
%TO.P,IC1,1,AP_SDO_/_AP_AD0*%
%TO.N,/SDO{slash}ADO*%
X142900000Y-91750000D03*
%TO.P,IC1,2,RESV_1*%
%TO.N,GND*%
X142900000Y-92250000D03*
%TO.P,IC1,3,RESV_2*%
X142900000Y-92750000D03*
%TO.P,IC1,4,INT1_/_INT*%
%TO.N,/INT1*%
X142900000Y-93250000D03*
D13*
%TO.P,IC1,5,VDDIO*%
%TO.N,/VCC*%
X143550000Y-93400000D03*
%TO.P,IC1,6,GND*%
%TO.N,GND*%
X144050000Y-93400000D03*
%TO.P,IC1,7,FSYNC*%
%TO.N,/FSYNC*%
X144550000Y-93400000D03*
D12*
%TO.P,IC1,8,VDD*%
%TO.N,/VCC*%
X145200000Y-93250000D03*
%TO.P,IC1,9,INT2*%
%TO.N,/INT2*%
X145200000Y-92750000D03*
%TO.P,IC1,10,RESV_3*%
%TO.N,GND*%
X145200000Y-92250000D03*
%TO.P,IC1,11,RESV_4*%
X145200000Y-91750000D03*
D13*
%TO.P,IC1,12,AP_CS*%
%TO.N,/CS*%
X144550000Y-91600000D03*
%TO.P,IC1,13,AP_SCL_/_AP_SCLK*%
%TO.N,/SCL{slash}SCLK*%
X144050000Y-91600000D03*
%TO.P,IC1,14,AP_SDA_/_AP_SDIO_/_AP_SDI*%
%TO.N,/SDA{slash}SDIO{slash}SDI*%
X143550000Y-91600000D03*
%TD*%
D14*
%TO.P,H2,1*%
%TO.N,N/C*%
X146610000Y-103860000D03*
D15*
X146610000Y-103860000D03*
%TD*%
D14*
%TO.P,H1,1*%
%TO.N,N/C*%
X146610000Y-84890000D03*
D15*
X146610000Y-84890000D03*
%TD*%
D16*
%TO.P,R2,1*%
%TO.N,/CS*%
X141400000Y-102000000D03*
%TO.P,R2,2*%
%TO.N,/VCC*%
X143400000Y-102000000D03*
%TD*%
D17*
%TO.P,J1,1,Pin_1*%
%TO.N,/VCC*%
X136870000Y-84220000D03*
D18*
%TO.P,J1,2,Pin_2*%
%TO.N,GND*%
X136870000Y-86760000D03*
%TO.P,J1,3,Pin_3*%
%TO.N,/SCL{slash}SCLK*%
X136870000Y-89300000D03*
%TO.P,J1,4,Pin_4*%
%TO.N,/SDA{slash}SDIO{slash}SDI*%
X136870000Y-91840000D03*
%TO.P,J1,5,Pin_5*%
%TO.N,/SDO{slash}ADO*%
X136870000Y-94380000D03*
%TO.P,J1,6,Pin_6*%
%TO.N,/INT1*%
X136870000Y-96920000D03*
%TO.P,J1,7,Pin_7*%
%TO.N,/INT2*%
X136870000Y-99460000D03*
%TO.P,J1,8,Pin_8*%
%TO.N,/CS*%
X136870000Y-102000000D03*
%TO.P,J1,9,Pin_9*%
%TO.N,/FSYNC*%
X136870000Y-104540000D03*
%TD*%
D19*
%TO.P,C3,1*%
%TO.N,/VCC*%
X141900000Y-95664000D03*
%TO.P,C3,2*%
%TO.N,GND*%
X143975000Y-95664000D03*
%TD*%
D20*
%TO.P,R1,1*%
%TO.N,/FSYNC*%
X146000000Y-97700000D03*
%TO.P,R1,2*%
%TO.N,GND*%
X144000000Y-97700000D03*
%TD*%
D21*
%TO.N,GND*%
X142900000Y-99000000D03*
X144100000Y-87800000D03*
X147600000Y-96900000D03*
X141600000Y-92500000D03*
%TO.N,/FSYNC*%
X145500000Y-95900000D03*
%TO.N,/INT2*%
X146103165Y-92422891D03*
X138675500Y-100300000D03*
%TO.N,/CS*%
X144400000Y-89600000D03*
X140000000Y-97800000D03*
%TD*%
D22*
%TO.N,/VCC*%
X148500000Y-87900000D02*
X147800000Y-87200000D01*
X145200000Y-93250000D02*
X146987500Y-93250000D01*
X147100000Y-91700000D02*
X147400000Y-92000000D01*
X148500000Y-91500000D02*
X148500000Y-87900000D01*
X141900000Y-95664000D02*
X143550000Y-94014000D01*
X141900000Y-99500000D02*
X141900000Y-95664000D01*
X143550000Y-94014000D02*
X143550000Y-93400000D01*
X147400000Y-93462500D02*
X147300000Y-93562500D01*
X147400000Y-92000000D02*
X147400000Y-93462500D01*
X145000000Y-87200000D02*
X142020000Y-84220000D01*
X145200000Y-101000000D02*
X143400000Y-101000000D01*
X148500000Y-92000000D02*
X148500000Y-91500000D01*
X148500000Y-97700000D02*
X148500000Y-92000000D01*
X148500000Y-97700000D02*
X145200000Y-101000000D01*
X143400000Y-101000000D02*
X141900000Y-99500000D01*
X146987500Y-93250000D02*
X147300000Y-93562500D01*
X147100000Y-90437500D02*
X147100000Y-91700000D01*
X147400000Y-92000000D02*
X148500000Y-92000000D01*
X143400000Y-102000000D02*
X143400000Y-101000000D01*
X142020000Y-84220000D02*
X136870000Y-84220000D01*
X147800000Y-87200000D02*
X145000000Y-87200000D01*
%TO.N,GND*%
X141850000Y-92750000D02*
X141600000Y-92500000D01*
X145200000Y-91750000D02*
X145200000Y-90200000D01*
X143060000Y-86760000D02*
X136870000Y-86760000D01*
X145200000Y-90200000D02*
X147037500Y-88362500D01*
X143975000Y-97675000D02*
X144000000Y-97700000D01*
X143975000Y-95664000D02*
X143975000Y-97675000D01*
X147300000Y-96600000D02*
X147600000Y-96900000D01*
X142900000Y-92250000D02*
X144050000Y-92250000D01*
X144050000Y-92250000D02*
X145200000Y-92250000D01*
X144100000Y-87800000D02*
X143060000Y-86760000D01*
X142900000Y-92750000D02*
X142900000Y-92250000D01*
X144100000Y-87800000D02*
X146537500Y-87800000D01*
X142900000Y-92750000D02*
X141850000Y-92750000D01*
X144050000Y-95589000D02*
X144050000Y-93400000D01*
X143975000Y-95664000D02*
X144050000Y-95589000D01*
X142900000Y-98800000D02*
X144000000Y-97700000D01*
X147300000Y-95637500D02*
X147300000Y-96600000D01*
X142900000Y-99000000D02*
X142900000Y-98800000D01*
X146537500Y-87800000D02*
X147100000Y-88362500D01*
X145200000Y-92250000D02*
X145200000Y-91750000D01*
X147037500Y-88362500D02*
X147100000Y-88362500D01*
X144050000Y-93400000D02*
X144050000Y-92250000D01*
%TO.N,/SDO{slash}ADO*%
X142900000Y-91750000D02*
X140850000Y-91750000D01*
X140850000Y-91750000D02*
X138220000Y-94380000D01*
X138220000Y-94380000D02*
X136870000Y-94380000D01*
%TO.N,/INT1*%
X141250000Y-93250000D02*
X139500000Y-95000000D01*
X139500000Y-95000000D02*
X139500000Y-95700000D01*
X139500000Y-95700000D02*
X138280000Y-96920000D01*
X138280000Y-96920000D02*
X136870000Y-96920000D01*
X142900000Y-93250000D02*
X141250000Y-93250000D01*
%TO.N,/FSYNC*%
X145500000Y-95100000D02*
X145500000Y-95900000D01*
X146000000Y-97700000D02*
X146000000Y-96400000D01*
X144550000Y-93400000D02*
X144550000Y-94150000D01*
X144550000Y-94150000D02*
X145500000Y-95100000D01*
X146000000Y-96400000D02*
X145500000Y-95900000D01*
%TO.N,/INT2*%
X146103165Y-92422891D02*
X145776056Y-92750000D01*
X136870000Y-99460000D02*
X137835500Y-99460000D01*
X137835500Y-99460000D02*
X138675500Y-100300000D01*
X145776056Y-92750000D02*
X145200000Y-92750000D01*
%TO.N,/CS*%
X140000000Y-100600000D02*
X140000000Y-97800000D01*
X141400000Y-102000000D02*
X140000000Y-100600000D01*
X144400000Y-89600000D02*
X144550000Y-89750000D01*
X141400000Y-102000000D02*
X136870000Y-102000000D01*
X144550000Y-89750000D02*
X144550000Y-91600000D01*
%TO.N,/SCL{slash}SCLK*%
X142800000Y-89300000D02*
X144050000Y-90550000D01*
X144050000Y-90550000D02*
X144050000Y-91600000D01*
X136870000Y-89300000D02*
X142800000Y-89300000D01*
%TO.N,/SDA{slash}SDIO{slash}SDI*%
X143550000Y-91600000D02*
X143550000Y-91450000D01*
X138210000Y-90500000D02*
X136870000Y-91840000D01*
X143550000Y-91450000D02*
X142600000Y-90500000D01*
X142600000Y-90500000D02*
X138210000Y-90500000D01*
%TD*%
%TA.AperFunction,Conductor*%
%TO.N,GND*%
G36*
X141858104Y-84659852D02*
G01*
X144659515Y-87461263D01*
X144738737Y-87540485D01*
X144771698Y-87559515D01*
X144835760Y-87596502D01*
X144835762Y-87596502D01*
X144835763Y-87596503D01*
X144862817Y-87603752D01*
X144943978Y-87625500D01*
X144943981Y-87625500D01*
X144943982Y-87625500D01*
X145893026Y-87625500D01*
X145927674Y-87639852D01*
X145942026Y-87674500D01*
X145934729Y-87700226D01*
X145933344Y-87702470D01*
X145933342Y-87702474D01*
X145877605Y-87870678D01*
X145867000Y-87974489D01*
X145867000Y-88108500D01*
X147305000Y-88108500D01*
X147339648Y-88122852D01*
X147354000Y-88157500D01*
X147354000Y-88567500D01*
X147339648Y-88602148D01*
X147305000Y-88616500D01*
X145867000Y-88616500D01*
X145867000Y-88750510D01*
X145877605Y-88854321D01*
X145933342Y-89022525D01*
X146026364Y-89173338D01*
X146151661Y-89298635D01*
X146302474Y-89391657D01*
X146470678Y-89447394D01*
X146551496Y-89455650D01*
X146584506Y-89473448D01*
X146595262Y-89509376D01*
X146577464Y-89542386D01*
X146552359Y-89553046D01*
X146493443Y-89560121D01*
X146493437Y-89560122D01*
X146493436Y-89560123D01*
X146409034Y-89593407D01*
X146352655Y-89615640D01*
X146232078Y-89707078D01*
X146140640Y-89827655D01*
X146140639Y-89827658D01*
X146101098Y-89927928D01*
X146085123Y-89968437D01*
X146085121Y-89968443D01*
X146074500Y-90056894D01*
X146074500Y-90818105D01*
X146085121Y-90906556D01*
X146085122Y-90906560D01*
X146085123Y-90906564D01*
X146125500Y-91008952D01*
X146140640Y-91047344D01*
X146151445Y-91061592D01*
X146232078Y-91167922D01*
X146295283Y-91215852D01*
X146347086Y-91255136D01*
X146352658Y-91259361D01*
X146493436Y-91314877D01*
X146493442Y-91314877D01*
X146493443Y-91314878D01*
X146581895Y-91325500D01*
X146581898Y-91325500D01*
X146625500Y-91325500D01*
X146660148Y-91339852D01*
X146674500Y-91374500D01*
X146674500Y-91756021D01*
X146703496Y-91864235D01*
X146703497Y-91864239D01*
X146759515Y-91961263D01*
X146960148Y-92161896D01*
X146974500Y-92196544D01*
X146974500Y-92625500D01*
X146960148Y-92660148D01*
X146925500Y-92674500D01*
X146827916Y-92674500D01*
X146793268Y-92660148D01*
X146778916Y-92625500D01*
X146782100Y-92608124D01*
X146788303Y-92591767D01*
X146788305Y-92591763D01*
X146808810Y-92422891D01*
X146788305Y-92254019D01*
X146727983Y-92094961D01*
X146698544Y-92052312D01*
X146631348Y-91954962D01*
X146553108Y-91885648D01*
X146504017Y-91842157D01*
X146504009Y-91842153D01*
X146504008Y-91842152D01*
X146353389Y-91763100D01*
X146188221Y-91722391D01*
X146057000Y-91722391D01*
X146022352Y-91708039D01*
X146008000Y-91673391D01*
X146008000Y-91551403D01*
X146001496Y-91490909D01*
X145950444Y-91354035D01*
X145862903Y-91237096D01*
X145745964Y-91149555D01*
X145609090Y-91098503D01*
X145548596Y-91092000D01*
X145350000Y-91092000D01*
X145350000Y-91851000D01*
X145335648Y-91885648D01*
X145301000Y-91900000D01*
X145099000Y-91900000D01*
X145064352Y-91885648D01*
X145050000Y-91851000D01*
X145050000Y-91092000D01*
X145024500Y-91092000D01*
X144989852Y-91077648D01*
X144975500Y-91043000D01*
X144975500Y-90014647D01*
X144984173Y-89986812D01*
X145024818Y-89927930D01*
X145085140Y-89768872D01*
X145105645Y-89600000D01*
X145085140Y-89431128D01*
X145024818Y-89272070D01*
X144928183Y-89132071D01*
X144800852Y-89019266D01*
X144800844Y-89019262D01*
X144800843Y-89019261D01*
X144650224Y-88940209D01*
X144485056Y-88899500D01*
X144314944Y-88899500D01*
X144149775Y-88940209D01*
X143999156Y-89019261D01*
X143999151Y-89019264D01*
X143999148Y-89019266D01*
X143973069Y-89042369D01*
X143871816Y-89132071D01*
X143775182Y-89272068D01*
X143775181Y-89272070D01*
X143714861Y-89431124D01*
X143714861Y-89431125D01*
X143714860Y-89431128D01*
X143707286Y-89493506D01*
X143688862Y-89526171D01*
X143652736Y-89536242D01*
X143623995Y-89522247D01*
X143061263Y-88959515D01*
X142964239Y-88903497D01*
X142964235Y-88903496D01*
X142856021Y-88874500D01*
X142856018Y-88874500D01*
X137973706Y-88874500D01*
X137939058Y-88860148D01*
X137929843Y-88847341D01*
X137852367Y-88691747D01*
X137852366Y-88691746D01*
X137852366Y-88691745D01*
X137723872Y-88521593D01*
X137723871Y-88521592D01*
X137566306Y-88377951D01*
X137566303Y-88377949D01*
X137566302Y-88377948D01*
X137385019Y-88265702D01*
X137385016Y-88265701D01*
X137385015Y-88265700D01*
X137186199Y-88188679D01*
X137162665Y-88184279D01*
X137131244Y-88163804D01*
X137123505Y-88127109D01*
X137143980Y-88095688D01*
X137163606Y-88087782D01*
X137204513Y-88080956D01*
X137417369Y-88007882D01*
X137417379Y-88007878D01*
X137615291Y-87900773D01*
X137615305Y-87900764D01*
X137792897Y-87762539D01*
X137945326Y-87596956D01*
X138068415Y-87408555D01*
X138068419Y-87408549D01*
X138158820Y-87202455D01*
X138206543Y-87014000D01*
X137300703Y-87014000D01*
X137335925Y-86952993D01*
X137370000Y-86825826D01*
X137370000Y-86694174D01*
X137335925Y-86567007D01*
X137300703Y-86506000D01*
X138206543Y-86506000D01*
X138158820Y-86317544D01*
X138068419Y-86111450D01*
X138068415Y-86111444D01*
X137945326Y-85923043D01*
X137792897Y-85757460D01*
X137615305Y-85619235D01*
X137615291Y-85619226D01*
X137417379Y-85512121D01*
X137417369Y-85512117D01*
X137282581Y-85465844D01*
X137254470Y-85441020D01*
X137252146Y-85403589D01*
X137276970Y-85375478D01*
X137298489Y-85370499D01*
X137764864Y-85370499D01*
X137789991Y-85367585D01*
X137892765Y-85322206D01*
X137972206Y-85242765D01*
X138017585Y-85139991D01*
X138020500Y-85114865D01*
X138020500Y-84694500D01*
X138034852Y-84659852D01*
X138069500Y-84645500D01*
X141823456Y-84645500D01*
X141858104Y-84659852D01*
G37*
%TD.AperFunction*%
%TA.AperFunction,Conductor*%
G36*
X149235648Y-82264352D02*
G01*
X149250000Y-82299000D01*
X149250000Y-106451000D01*
X149235648Y-106485648D01*
X149201000Y-106500000D01*
X135049000Y-106500000D01*
X135014352Y-106485648D01*
X135000000Y-106451000D01*
X135000000Y-104540000D01*
X135714571Y-104540000D01*
X135734243Y-104752306D01*
X135734244Y-104752312D01*
X135792593Y-104957384D01*
X135792597Y-104957394D01*
X135887632Y-105148252D01*
X135887635Y-105148256D01*
X136016125Y-105318404D01*
X136016128Y-105318407D01*
X136173693Y-105462048D01*
X136173694Y-105462049D01*
X136173698Y-105462052D01*
X136354981Y-105574298D01*
X136354984Y-105574299D01*
X136553796Y-105651319D01*
X136553797Y-105651319D01*
X136553802Y-105651321D01*
X136763390Y-105690500D01*
X136763392Y-105690500D01*
X136976608Y-105690500D01*
X136976610Y-105690500D01*
X137186198Y-105651321D01*
X137385019Y-105574298D01*
X137566302Y-105462052D01*
X137723872Y-105318407D01*
X137852366Y-105148255D01*
X137947405Y-104957389D01*
X138005756Y-104752310D01*
X138025429Y-104540000D01*
X138005756Y-104327690D01*
X137947405Y-104122611D01*
X137852366Y-103931745D01*
X137798185Y-103859999D01*
X144404778Y-103859999D01*
X144404778Y-103860000D01*
X144423643Y-104147833D01*
X144479917Y-104430747D01*
X144572640Y-104703900D01*
X144700222Y-104962611D01*
X144860479Y-105202454D01*
X144961808Y-105317997D01*
X145050673Y-105419327D01*
X145166216Y-105520655D01*
X145267545Y-105609520D01*
X145388741Y-105690500D01*
X145507389Y-105769778D01*
X145766098Y-105897359D01*
X146039247Y-105990081D01*
X146322161Y-106046356D01*
X146562026Y-106062077D01*
X146609999Y-106065222D01*
X146610000Y-106065222D01*
X146610001Y-106065222D01*
X146651119Y-106062526D01*
X146897839Y-106046356D01*
X147180753Y-105990081D01*
X147453902Y-105897359D01*
X147712611Y-105769778D01*
X147952454Y-105609520D01*
X148169327Y-105419327D01*
X148359520Y-105202454D01*
X148519778Y-104962611D01*
X148647359Y-104703902D01*
X148740081Y-104430753D01*
X148796356Y-104147839D01*
X148815222Y-103860000D01*
X148796356Y-103572161D01*
X148740081Y-103289247D01*
X148647359Y-103016098D01*
X148519778Y-102757389D01*
X148466600Y-102677803D01*
X148359520Y-102517545D01*
X148270655Y-102416216D01*
X148169327Y-102300673D01*
X148067997Y-102211808D01*
X147952454Y-102110479D01*
X147712611Y-101950222D01*
X147453900Y-101822640D01*
X147180747Y-101729917D01*
X146952569Y-101684530D01*
X146897839Y-101673644D01*
X146897837Y-101673643D01*
X146897833Y-101673643D01*
X146610001Y-101654778D01*
X146609999Y-101654778D01*
X146322166Y-101673643D01*
X146039252Y-101729917D01*
X145766099Y-101822640D01*
X145507388Y-101950222D01*
X145267545Y-102110479D01*
X145050673Y-102300673D01*
X144860479Y-102517545D01*
X144700222Y-102757388D01*
X144572640Y-103016099D01*
X144479917Y-103289252D01*
X144423643Y-103572166D01*
X144404778Y-103859999D01*
X137798185Y-103859999D01*
X137723872Y-103761593D01*
X137723871Y-103761592D01*
X137566306Y-103617951D01*
X137566303Y-103617949D01*
X137566302Y-103617948D01*
X137385019Y-103505702D01*
X137385016Y-103505701D01*
X137385015Y-103505700D01*
X137186203Y-103428680D01*
X137186198Y-103428679D01*
X136976610Y-103389500D01*
X136763390Y-103389500D01*
X136605236Y-103419064D01*
X136553796Y-103428680D01*
X136354984Y-103505700D01*
X136173693Y-103617951D01*
X136016128Y-103761592D01*
X136016125Y-103761595D01*
X135887635Y-103931743D01*
X135887632Y-103931747D01*
X135792597Y-104122605D01*
X135792593Y-104122615D01*
X135734244Y-104327687D01*
X135734243Y-104327693D01*
X135714571Y-104540000D01*
X135000000Y-104540000D01*
X135000000Y-102000000D01*
X135714571Y-102000000D01*
X135734243Y-102212306D01*
X135734244Y-102212312D01*
X135792593Y-102417384D01*
X135792597Y-102417394D01*
X135887632Y-102608252D01*
X135887635Y-102608256D01*
X136016125Y-102778404D01*
X136016128Y-102778407D01*
X136173693Y-102922048D01*
X136173694Y-102922049D01*
X136173698Y-102922052D01*
X136354981Y-103034298D01*
X136354984Y-103034299D01*
X136553796Y-103111319D01*
X136553797Y-103111319D01*
X136553802Y-103111321D01*
X136763390Y-103150500D01*
X136763392Y-103150500D01*
X136976608Y-103150500D01*
X136976610Y-103150500D01*
X137186198Y-103111321D01*
X137385019Y-103034298D01*
X137566302Y-102922052D01*
X137723872Y-102778407D01*
X137852366Y-102608255D01*
X137929843Y-102452659D01*
X137958134Y-102428040D01*
X137973706Y-102425500D01*
X140450500Y-102425500D01*
X140485148Y-102439852D01*
X140499500Y-102474500D01*
X140499500Y-102493105D01*
X140510121Y-102581556D01*
X140510122Y-102581560D01*
X140510123Y-102581564D01*
X140565639Y-102722342D01*
X140565640Y-102722344D01*
X140592215Y-102757388D01*
X140657078Y-102842922D01*
X140777658Y-102934361D01*
X140918436Y-102989877D01*
X140918442Y-102989877D01*
X140918443Y-102989878D01*
X141006895Y-103000500D01*
X141006898Y-103000500D01*
X141793105Y-103000500D01*
X141881556Y-102989878D01*
X141881556Y-102989877D01*
X141881564Y-102989877D01*
X142022342Y-102934361D01*
X142142922Y-102842922D01*
X142234361Y-102722342D01*
X142289877Y-102581564D01*
X142300500Y-102493102D01*
X142300500Y-101506898D01*
X142298573Y-101490852D01*
X142289878Y-101418443D01*
X142289877Y-101418442D01*
X142289877Y-101418436D01*
X142234361Y-101277658D01*
X142142922Y-101157078D01*
X142038574Y-101077948D01*
X142022344Y-101065640D01*
X142022342Y-101065639D01*
X141881564Y-101010123D01*
X141881560Y-101010122D01*
X141881556Y-101010121D01*
X141793105Y-100999500D01*
X141793102Y-100999500D01*
X141021544Y-100999500D01*
X140986896Y-100985148D01*
X140439852Y-100438104D01*
X140425500Y-100403456D01*
X140425500Y-98380950D01*
X140439852Y-98346302D01*
X140442007Y-98344273D01*
X140487104Y-98304321D01*
X140528183Y-98267929D01*
X140624818Y-98127930D01*
X140685140Y-97968872D01*
X140705645Y-97800000D01*
X140685140Y-97631128D01*
X140624818Y-97472070D01*
X140528183Y-97332071D01*
X140400852Y-97219266D01*
X140400844Y-97219262D01*
X140400843Y-97219261D01*
X140250224Y-97140209D01*
X140085056Y-97099500D01*
X139914944Y-97099500D01*
X139749775Y-97140209D01*
X139599156Y-97219261D01*
X139599151Y-97219264D01*
X139599148Y-97219266D01*
X139599146Y-97219268D01*
X139471816Y-97332071D01*
X139375182Y-97472068D01*
X139375181Y-97472070D01*
X139314861Y-97631125D01*
X139314860Y-97631128D01*
X139294355Y-97800000D01*
X139314860Y-97968872D01*
X139314861Y-97968874D01*
X139375181Y-98127929D01*
X139375182Y-98127931D01*
X139471816Y-98267928D01*
X139557993Y-98344273D01*
X139574411Y-98377991D01*
X139574500Y-98380950D01*
X139574500Y-100656021D01*
X139603496Y-100764235D01*
X139603497Y-100764239D01*
X139659515Y-100861263D01*
X140289104Y-101490852D01*
X140303456Y-101525500D01*
X140289104Y-101560148D01*
X140254456Y-101574500D01*
X137973706Y-101574500D01*
X137939058Y-101560148D01*
X137929843Y-101547341D01*
X137852367Y-101391747D01*
X137852366Y-101391746D01*
X137852366Y-101391745D01*
X137766211Y-101277658D01*
X137723874Y-101221595D01*
X137723871Y-101221592D01*
X137566306Y-101077951D01*
X137566303Y-101077949D01*
X137566302Y-101077948D01*
X137385019Y-100965702D01*
X137385016Y-100965701D01*
X137385015Y-100965700D01*
X137186203Y-100888680D01*
X137186198Y-100888679D01*
X136976610Y-100849500D01*
X136763390Y-100849500D01*
X136605236Y-100879064D01*
X136553796Y-100888680D01*
X136354984Y-100965700D01*
X136173693Y-101077951D01*
X136016128Y-101221592D01*
X136016125Y-101221595D01*
X135887635Y-101391743D01*
X135887632Y-101391747D01*
X135792597Y-101582605D01*
X135792593Y-101582615D01*
X135734244Y-101787687D01*
X135734243Y-101787693D01*
X135714571Y-102000000D01*
X135000000Y-102000000D01*
X135000000Y-99460000D01*
X135714571Y-99460000D01*
X135734243Y-99672306D01*
X135734244Y-99672312D01*
X135792593Y-99877384D01*
X135792597Y-99877394D01*
X135887632Y-100068252D01*
X135887635Y-100068256D01*
X136016125Y-100238404D01*
X136016128Y-100238407D01*
X136173693Y-100382048D01*
X136173694Y-100382049D01*
X136173698Y-100382052D01*
X136354981Y-100494298D01*
X136354984Y-100494299D01*
X136553796Y-100571319D01*
X136553797Y-100571319D01*
X136553802Y-100571321D01*
X136763390Y-100610500D01*
X136763392Y-100610500D01*
X136976608Y-100610500D01*
X136976610Y-100610500D01*
X137186198Y-100571321D01*
X137385019Y-100494298D01*
X137566302Y-100382052D01*
X137723872Y-100238407D01*
X137813974Y-100119091D01*
X137846307Y-100100091D01*
X137882606Y-100109518D01*
X137887725Y-100113973D01*
X137964233Y-100190481D01*
X137978585Y-100225129D01*
X137978228Y-100231035D01*
X137977333Y-100238407D01*
X137969855Y-100300000D01*
X137990360Y-100468872D01*
X137990361Y-100468874D01*
X138050681Y-100627929D01*
X138050682Y-100627931D01*
X138144770Y-100764239D01*
X138147317Y-100767929D01*
X138274648Y-100880734D01*
X138425275Y-100959790D01*
X138590444Y-101000500D01*
X138760556Y-101000500D01*
X138925725Y-100959790D01*
X139076352Y-100880734D01*
X139203683Y-100767929D01*
X139300318Y-100627930D01*
X139360640Y-100468872D01*
X139381145Y-100300000D01*
X139360640Y-100131128D01*
X139300318Y-99972070D01*
X139234967Y-99877394D01*
X139203683Y-99832071D01*
X139076352Y-99719266D01*
X139076344Y-99719262D01*
X139076343Y-99719261D01*
X138925724Y-99640209D01*
X138760556Y-99599500D01*
X138597044Y-99599500D01*
X138562396Y-99585148D01*
X138096763Y-99119515D01*
X137999739Y-99063497D01*
X137999736Y-99063496D01*
X137972684Y-99056248D01*
X137942931Y-99033418D01*
X137941503Y-99030759D01*
X137852367Y-98851747D01*
X137852366Y-98851746D01*
X137852366Y-98851745D01*
X137730128Y-98689877D01*
X137723874Y-98681595D01*
X137723871Y-98681592D01*
X137566306Y-98537951D01*
X137566303Y-98537949D01*
X137566302Y-98537948D01*
X137385019Y-98425702D01*
X137385016Y-98425701D01*
X137385015Y-98425700D01*
X137186203Y-98348680D01*
X137162628Y-98344273D01*
X136976610Y-98309500D01*
X136763390Y-98309500D01*
X136605236Y-98339064D01*
X136553796Y-98348680D01*
X136354984Y-98425700D01*
X136173693Y-98537951D01*
X136016128Y-98681592D01*
X136016125Y-98681595D01*
X135887635Y-98851743D01*
X135887632Y-98851747D01*
X135792597Y-99042605D01*
X135792593Y-99042615D01*
X135734244Y-99247687D01*
X135734243Y-99247693D01*
X135714571Y-99460000D01*
X135000000Y-99460000D01*
X135000000Y-86506000D01*
X135533457Y-86506000D01*
X136439297Y-86506000D01*
X136404075Y-86567007D01*
X136370000Y-86694174D01*
X136370000Y-86825826D01*
X136404075Y-86952993D01*
X136439297Y-87014000D01*
X135533457Y-87014000D01*
X135581179Y-87202455D01*
X135671580Y-87408549D01*
X135671584Y-87408555D01*
X135794673Y-87596956D01*
X135947102Y-87762539D01*
X136124694Y-87900764D01*
X136124708Y-87900773D01*
X136322620Y-88007878D01*
X136322630Y-88007882D01*
X136535486Y-88080956D01*
X136576394Y-88087782D01*
X136608207Y-88107641D01*
X136616661Y-88144179D01*
X136596802Y-88175992D01*
X136577335Y-88184279D01*
X136553799Y-88188679D01*
X136354984Y-88265700D01*
X136173693Y-88377951D01*
X136016128Y-88521592D01*
X136016125Y-88521595D01*
X135887635Y-88691743D01*
X135887632Y-88691747D01*
X135792597Y-88882605D01*
X135792593Y-88882615D01*
X135734244Y-89087687D01*
X135734243Y-89087693D01*
X135714571Y-89300000D01*
X135734243Y-89512306D01*
X135734244Y-89512312D01*
X135792593Y-89717384D01*
X135792597Y-89717394D01*
X135887632Y-89908252D01*
X135887633Y-89908254D01*
X135887634Y-89908255D01*
X135902492Y-89927930D01*
X136016125Y-90078404D01*
X136016128Y-90078407D01*
X136173693Y-90222048D01*
X136173694Y-90222049D01*
X136173698Y-90222052D01*
X136354981Y-90334298D01*
X136354984Y-90334299D01*
X136553796Y-90411319D01*
X136553797Y-90411319D01*
X136553802Y-90411321D01*
X136763390Y-90450500D01*
X136763392Y-90450500D01*
X136976608Y-90450500D01*
X136976610Y-90450500D01*
X137186198Y-90411321D01*
X137385019Y-90334298D01*
X137566302Y-90222052D01*
X137723872Y-90078407D01*
X137852366Y-89908255D01*
X137929843Y-89752659D01*
X137958134Y-89728040D01*
X137973706Y-89725500D01*
X142603456Y-89725500D01*
X142638104Y-89739852D01*
X143610148Y-90711896D01*
X143624500Y-90746544D01*
X143624500Y-90804456D01*
X143610148Y-90839104D01*
X143575500Y-90853456D01*
X143540852Y-90839104D01*
X142861263Y-90159515D01*
X142764239Y-90103497D01*
X142764235Y-90103496D01*
X142656021Y-90074500D01*
X142656018Y-90074500D01*
X138266018Y-90074500D01*
X138153981Y-90074500D01*
X138153978Y-90074500D01*
X138045764Y-90103496D01*
X138045760Y-90103497D01*
X137948736Y-90159515D01*
X137948735Y-90159516D01*
X137348153Y-90760097D01*
X137313505Y-90774449D01*
X137295804Y-90771140D01*
X137186203Y-90728680D01*
X137173193Y-90726248D01*
X136976610Y-90689500D01*
X136763390Y-90689500D01*
X136643583Y-90711896D01*
X136553796Y-90728680D01*
X136354984Y-90805700D01*
X136173693Y-90917951D01*
X136016128Y-91061592D01*
X136016125Y-91061595D01*
X135887635Y-91231743D01*
X135887632Y-91231747D01*
X135792597Y-91422605D01*
X135792593Y-91422615D01*
X135734244Y-91627687D01*
X135734243Y-91627693D01*
X135714571Y-91840000D01*
X135734243Y-92052306D01*
X135734244Y-92052312D01*
X135792593Y-92257384D01*
X135792597Y-92257394D01*
X135887632Y-92448252D01*
X135887633Y-92448254D01*
X135887634Y-92448255D01*
X135919757Y-92490793D01*
X136016125Y-92618404D01*
X136016128Y-92618407D01*
X136173693Y-92762048D01*
X136173694Y-92762049D01*
X136173698Y-92762052D01*
X136354981Y-92874298D01*
X136421254Y-92899972D01*
X136553796Y-92951319D01*
X136553797Y-92951319D01*
X136553802Y-92951321D01*
X136763390Y-92990500D01*
X136763392Y-92990500D01*
X136976608Y-92990500D01*
X136976610Y-92990500D01*
X137186198Y-92951321D01*
X137385019Y-92874298D01*
X137566302Y-92762052D01*
X137723872Y-92618407D01*
X137852366Y-92448255D01*
X137947405Y-92257389D01*
X138005756Y-92052310D01*
X138025429Y-91840000D01*
X138005756Y-91627690D01*
X137947405Y-91422611D01*
X137947400Y-91422600D01*
X137943751Y-91415271D01*
X137941153Y-91377858D01*
X137952963Y-91358783D01*
X138371896Y-90939852D01*
X138406544Y-90925500D01*
X142403456Y-90925500D01*
X142438104Y-90939852D01*
X142714104Y-91215852D01*
X142728456Y-91250500D01*
X142714104Y-91285148D01*
X142679456Y-91299500D01*
X142555141Y-91299500D01*
X142555131Y-91299501D01*
X142530007Y-91302415D01*
X142489446Y-91320325D01*
X142469654Y-91324500D01*
X140793979Y-91324500D01*
X140685764Y-91353496D01*
X140685760Y-91353497D01*
X140588736Y-91409515D01*
X140588736Y-91409516D01*
X138058104Y-93940148D01*
X138023456Y-93954500D01*
X137973706Y-93954500D01*
X137939058Y-93940148D01*
X137929843Y-93927341D01*
X137852367Y-93771747D01*
X137852366Y-93771746D01*
X137852366Y-93771745D01*
X137782837Y-93679675D01*
X137723874Y-93601595D01*
X137723871Y-93601592D01*
X137566306Y-93457951D01*
X137566303Y-93457949D01*
X137566302Y-93457948D01*
X137385019Y-93345702D01*
X137385016Y-93345701D01*
X137385015Y-93345700D01*
X137186203Y-93268680D01*
X137186198Y-93268679D01*
X136976610Y-93229500D01*
X136763390Y-93229500D01*
X136605236Y-93259064D01*
X136553796Y-93268680D01*
X136354984Y-93345700D01*
X136173693Y-93457951D01*
X136016128Y-93601592D01*
X136016125Y-93601595D01*
X135887635Y-93771743D01*
X135887632Y-93771747D01*
X135792597Y-93962605D01*
X135792593Y-93962615D01*
X135734244Y-94167687D01*
X135734243Y-94167693D01*
X135714571Y-94380000D01*
X135734243Y-94592306D01*
X135734244Y-94592312D01*
X135792593Y-94797384D01*
X135792597Y-94797394D01*
X135887632Y-94988252D01*
X135887635Y-94988256D01*
X136016125Y-95158404D01*
X136016128Y-95158407D01*
X136173693Y-95302048D01*
X136173694Y-95302049D01*
X136173698Y-95302052D01*
X136354981Y-95414298D01*
X136354984Y-95414299D01*
X136553796Y-95491319D01*
X136553797Y-95491319D01*
X136553802Y-95491321D01*
X136763390Y-95530500D01*
X136763392Y-95530500D01*
X136976608Y-95530500D01*
X136976610Y-95530500D01*
X137186198Y-95491321D01*
X137385019Y-95414298D01*
X137566302Y-95302052D01*
X137723872Y-95158407D01*
X137852366Y-94988255D01*
X137895161Y-94902308D01*
X137929843Y-94832659D01*
X137958134Y-94808040D01*
X137973706Y-94805500D01*
X138276021Y-94805500D01*
X138276021Y-94805499D01*
X138384237Y-94776503D01*
X138481263Y-94720485D01*
X141011896Y-92189852D01*
X141046544Y-92175500D01*
X142469654Y-92175500D01*
X142489446Y-92179675D01*
X142499998Y-92184334D01*
X142530009Y-92197585D01*
X142555135Y-92200500D01*
X143244864Y-92200499D01*
X143269991Y-92197585D01*
X143280204Y-92193074D01*
X143317697Y-92192205D01*
X143319758Y-92193058D01*
X143330009Y-92197585D01*
X143355135Y-92200500D01*
X143744864Y-92200499D01*
X143769991Y-92197585D01*
X143780204Y-92193074D01*
X143817697Y-92192205D01*
X143819758Y-92193058D01*
X143830009Y-92197585D01*
X143855135Y-92200500D01*
X144244864Y-92200499D01*
X144269991Y-92197585D01*
X144280204Y-92193074D01*
X144317697Y-92192205D01*
X144319758Y-92193058D01*
X144330009Y-92197585D01*
X144355135Y-92200500D01*
X144744864Y-92200499D01*
X144769991Y-92197585D01*
X144872765Y-92152206D01*
X144910619Y-92114351D01*
X144945266Y-92100000D01*
X145301000Y-92100000D01*
X145335648Y-92114352D01*
X145350000Y-92149000D01*
X145350000Y-92250500D01*
X145335648Y-92285148D01*
X145301000Y-92299500D01*
X144855141Y-92299500D01*
X144855131Y-92299501D01*
X144830007Y-92302415D01*
X144727235Y-92347793D01*
X144708308Y-92366720D01*
X144689380Y-92385648D01*
X144654734Y-92400000D01*
X144392000Y-92400000D01*
X144392000Y-92448596D01*
X144398503Y-92509090D01*
X144414195Y-92551160D01*
X144412856Y-92588639D01*
X144385408Y-92614195D01*
X144351160Y-92614195D01*
X144309090Y-92598503D01*
X144248596Y-92592000D01*
X144200000Y-92592000D01*
X144200000Y-92854732D01*
X144185648Y-92889380D01*
X144147794Y-92927233D01*
X144102415Y-93030006D01*
X144099500Y-93055134D01*
X144099500Y-93744858D01*
X144099501Y-93744864D01*
X144102415Y-93769991D01*
X144120325Y-93810554D01*
X144124500Y-93830344D01*
X144124500Y-94206021D01*
X144153496Y-94314235D01*
X144153497Y-94314239D01*
X144209515Y-94411263D01*
X144214648Y-94416396D01*
X144229000Y-94451044D01*
X144229000Y-96449000D01*
X144239648Y-96459648D01*
X144254000Y-96494296D01*
X144254000Y-98908000D01*
X144400510Y-98908000D01*
X144504321Y-98897394D01*
X144672525Y-98841657D01*
X144823338Y-98748635D01*
X144948635Y-98623338D01*
X145041657Y-98472525D01*
X145041658Y-98472523D01*
X145064790Y-98402713D01*
X145089311Y-98374337D01*
X145126715Y-98371612D01*
X145155091Y-98396133D01*
X145156886Y-98400148D01*
X145165638Y-98422342D01*
X145203694Y-98472525D01*
X145257078Y-98542922D01*
X145377658Y-98634361D01*
X145518436Y-98689877D01*
X145518442Y-98689877D01*
X145518443Y-98689878D01*
X145606895Y-98700500D01*
X145606898Y-98700500D01*
X146393105Y-98700500D01*
X146481556Y-98689878D01*
X146481556Y-98689877D01*
X146481564Y-98689877D01*
X146622342Y-98634361D01*
X146742922Y-98542922D01*
X146834361Y-98422342D01*
X146889877Y-98281564D01*
X146891514Y-98267929D01*
X146900500Y-98193105D01*
X146900500Y-97206894D01*
X146889878Y-97118443D01*
X146889877Y-97118442D01*
X146889877Y-97118436D01*
X146834361Y-96977658D01*
X146742922Y-96857078D01*
X146688087Y-96815495D01*
X146669151Y-96783124D01*
X146678652Y-96746844D01*
X146711023Y-96727908D01*
X146722675Y-96727706D01*
X146774490Y-96733000D01*
X147046000Y-96733000D01*
X147046000Y-95432500D01*
X147060352Y-95397852D01*
X147095000Y-95383500D01*
X147505000Y-95383500D01*
X147539648Y-95397852D01*
X147554000Y-95432500D01*
X147554000Y-96733000D01*
X147825510Y-96733000D01*
X147929321Y-96722394D01*
X148010087Y-96695631D01*
X148047491Y-96698356D01*
X148072013Y-96726731D01*
X148074500Y-96742144D01*
X148074500Y-97503456D01*
X148060148Y-97538104D01*
X145038104Y-100560148D01*
X145003456Y-100574500D01*
X143596543Y-100574500D01*
X143561895Y-100560148D01*
X142339852Y-99338104D01*
X142325500Y-99303456D01*
X142325500Y-98200510D01*
X142892000Y-98200510D01*
X142902605Y-98304321D01*
X142958342Y-98472525D01*
X143051364Y-98623338D01*
X143176661Y-98748635D01*
X143327474Y-98841657D01*
X143495678Y-98897394D01*
X143599490Y-98908000D01*
X143746000Y-98908000D01*
X143746000Y-97954000D01*
X142892000Y-97954000D01*
X142892000Y-98200510D01*
X142325500Y-98200510D01*
X142325500Y-96727576D01*
X142339852Y-96692928D01*
X142366142Y-96680149D01*
X142366016Y-96679647D01*
X142368434Y-96679035D01*
X142368661Y-96678925D01*
X142369064Y-96678877D01*
X142509842Y-96623361D01*
X142630422Y-96531922D01*
X142721861Y-96411342D01*
X142777377Y-96270564D01*
X142784453Y-96211639D01*
X142802833Y-96178951D01*
X142838945Y-96168832D01*
X142871635Y-96187213D01*
X142881849Y-96212503D01*
X142890105Y-96293321D01*
X142945842Y-96461525D01*
X143038864Y-96612338D01*
X143092628Y-96666102D01*
X143106980Y-96700750D01*
X143092628Y-96735398D01*
X143051364Y-96776661D01*
X142958342Y-96927474D01*
X142902605Y-97095678D01*
X142892000Y-97199489D01*
X142892000Y-97446000D01*
X143746000Y-97446000D01*
X143746000Y-96940000D01*
X143735352Y-96929352D01*
X143721000Y-96894704D01*
X143721000Y-94465042D01*
X143735352Y-94430394D01*
X143765684Y-94400062D01*
X143807228Y-94358517D01*
X143807233Y-94358514D01*
X143811261Y-94354485D01*
X143811263Y-94354485D01*
X143890485Y-94275263D01*
X143946503Y-94178237D01*
X143975499Y-94070021D01*
X143975500Y-94070021D01*
X143975500Y-93830344D01*
X143979676Y-93810551D01*
X143997583Y-93769996D01*
X143997584Y-93769993D01*
X143997583Y-93769993D01*
X143997585Y-93769991D01*
X144000500Y-93744865D01*
X144000499Y-93055136D01*
X143997585Y-93030009D01*
X143952206Y-92927235D01*
X143952205Y-92927234D01*
X143952205Y-92927233D01*
X143914352Y-92889380D01*
X143900000Y-92854732D01*
X143900000Y-92592000D01*
X143851404Y-92592000D01*
X143790907Y-92598504D01*
X143774123Y-92604764D01*
X143736644Y-92603424D01*
X143711089Y-92575976D01*
X143708000Y-92558853D01*
X143708000Y-92551413D01*
X143703035Y-92505239D01*
X143703035Y-92494761D01*
X143708000Y-92448586D01*
X143708000Y-92400000D01*
X142092000Y-92400000D01*
X142092000Y-92448596D01*
X142096963Y-92494762D01*
X142096963Y-92505238D01*
X142092000Y-92551403D01*
X142092000Y-92600000D01*
X143001000Y-92600000D01*
X143035648Y-92614352D01*
X143050000Y-92649000D01*
X143050000Y-92750500D01*
X143035648Y-92785148D01*
X143001000Y-92799500D01*
X142555141Y-92799500D01*
X142555131Y-92799501D01*
X142530007Y-92802415D01*
X142489446Y-92820325D01*
X142469654Y-92824500D01*
X141193979Y-92824500D01*
X141085764Y-92853496D01*
X141085760Y-92853497D01*
X140988736Y-92909515D01*
X140988736Y-92909516D01*
X139159516Y-94738736D01*
X139159515Y-94738736D01*
X139103497Y-94835760D01*
X139103496Y-94835764D01*
X139074500Y-94943978D01*
X139074500Y-95503456D01*
X139060148Y-95538104D01*
X138118104Y-96480148D01*
X138083456Y-96494500D01*
X137973706Y-96494500D01*
X137939058Y-96480148D01*
X137929843Y-96467341D01*
X137852367Y-96311747D01*
X137852366Y-96311746D01*
X137852366Y-96311745D01*
X137754466Y-96182105D01*
X137723874Y-96141595D01*
X137723871Y-96141592D01*
X137566306Y-95997951D01*
X137566303Y-95997949D01*
X137566302Y-95997948D01*
X137385019Y-95885702D01*
X137385016Y-95885701D01*
X137385015Y-95885700D01*
X137186203Y-95808680D01*
X137186198Y-95808679D01*
X136976610Y-95769500D01*
X136763390Y-95769500D01*
X136605236Y-95799064D01*
X136553796Y-95808680D01*
X136354984Y-95885700D01*
X136173693Y-95997951D01*
X136016128Y-96141592D01*
X136016125Y-96141595D01*
X135887635Y-96311743D01*
X135887632Y-96311747D01*
X135792597Y-96502605D01*
X135792593Y-96502615D01*
X135734244Y-96707687D01*
X135734243Y-96707693D01*
X135714571Y-96920000D01*
X135734243Y-97132306D01*
X135734244Y-97132312D01*
X135792593Y-97337384D01*
X135792597Y-97337394D01*
X135887632Y-97528252D01*
X135887635Y-97528256D01*
X136016125Y-97698404D01*
X136016128Y-97698407D01*
X136173693Y-97842048D01*
X136173694Y-97842049D01*
X136173698Y-97842052D01*
X136354981Y-97954298D01*
X136392601Y-97968872D01*
X136553796Y-98031319D01*
X136553797Y-98031319D01*
X136553802Y-98031321D01*
X136763390Y-98070500D01*
X136763392Y-98070500D01*
X136976608Y-98070500D01*
X136976610Y-98070500D01*
X137186198Y-98031321D01*
X137385019Y-97954298D01*
X137566302Y-97842052D01*
X137723872Y-97698407D01*
X137852366Y-97528255D01*
X137929843Y-97372659D01*
X137958134Y-97348040D01*
X137973706Y-97345500D01*
X138336021Y-97345500D01*
X138336021Y-97345499D01*
X138444237Y-97316503D01*
X138541263Y-97260485D01*
X139840485Y-95961263D01*
X139896503Y-95864237D01*
X139925499Y-95756021D01*
X139925500Y-95756021D01*
X139925500Y-95196544D01*
X139939852Y-95161896D01*
X141411896Y-93689852D01*
X141446544Y-93675500D01*
X142469654Y-93675500D01*
X142489446Y-93679675D01*
X142512495Y-93689852D01*
X142530009Y-93697585D01*
X142555135Y-93700500D01*
X143050709Y-93700499D01*
X143085357Y-93714851D01*
X143099383Y-93743852D01*
X143099501Y-93744865D01*
X143102415Y-93769991D01*
X143116377Y-93801611D01*
X143117243Y-93839103D01*
X143106200Y-93856051D01*
X142335967Y-94626284D01*
X142301319Y-94640636D01*
X142295476Y-94640286D01*
X142280604Y-94638500D01*
X142280602Y-94638500D01*
X141519398Y-94638500D01*
X141519395Y-94638500D01*
X141430943Y-94649121D01*
X141430937Y-94649122D01*
X141430936Y-94649123D01*
X141334786Y-94687039D01*
X141290155Y-94704640D01*
X141169578Y-94796078D01*
X141078140Y-94916655D01*
X141067365Y-94943978D01*
X141027931Y-95043978D01*
X141022623Y-95057437D01*
X141022621Y-95057443D01*
X141012000Y-95145894D01*
X141012000Y-96182105D01*
X141022621Y-96270556D01*
X141022622Y-96270560D01*
X141022623Y-96270564D01*
X141061019Y-96367929D01*
X141078140Y-96411344D01*
X141105302Y-96447162D01*
X141169578Y-96531922D01*
X141290158Y-96623361D01*
X141430936Y-96678877D01*
X141431338Y-96678925D01*
X141431509Y-96679021D01*
X141433984Y-96679647D01*
X141433814Y-96680317D01*
X141464030Y-96697303D01*
X141474500Y-96727576D01*
X141474500Y-99556021D01*
X141503496Y-99664235D01*
X141503497Y-99664239D01*
X141535265Y-99719261D01*
X141559515Y-99761263D01*
X142180304Y-100382052D01*
X142787165Y-100988912D01*
X142801517Y-101023560D01*
X142787165Y-101058208D01*
X142780222Y-101063473D01*
X142780329Y-101063613D01*
X142657078Y-101157078D01*
X142565640Y-101277655D01*
X142565639Y-101277658D01*
X142518773Y-101396503D01*
X142510123Y-101418437D01*
X142510121Y-101418443D01*
X142499500Y-101506894D01*
X142499500Y-102493105D01*
X142510121Y-102581556D01*
X142510122Y-102581560D01*
X142510123Y-102581564D01*
X142565639Y-102722342D01*
X142565640Y-102722344D01*
X142592215Y-102757388D01*
X142657078Y-102842922D01*
X142777658Y-102934361D01*
X142918436Y-102989877D01*
X142918442Y-102989877D01*
X142918443Y-102989878D01*
X143006895Y-103000500D01*
X143006898Y-103000500D01*
X143793105Y-103000500D01*
X143881556Y-102989878D01*
X143881556Y-102989877D01*
X143881564Y-102989877D01*
X144022342Y-102934361D01*
X144142922Y-102842922D01*
X144234361Y-102722342D01*
X144289877Y-102581564D01*
X144300500Y-102493102D01*
X144300500Y-101506898D01*
X144297311Y-101480342D01*
X144307428Y-101444231D01*
X144340118Y-101425850D01*
X144345961Y-101425500D01*
X145256021Y-101425500D01*
X145256021Y-101425499D01*
X145364237Y-101396503D01*
X145461263Y-101340485D01*
X148840485Y-97961263D01*
X148896503Y-97864237D01*
X148925499Y-97756021D01*
X148925500Y-97756021D01*
X148925500Y-87843979D01*
X148925499Y-87843978D01*
X148919371Y-87821111D01*
X148896503Y-87735763D01*
X148896502Y-87735762D01*
X148896502Y-87735760D01*
X148860988Y-87674249D01*
X148840485Y-87638737D01*
X148761263Y-87559515D01*
X148061263Y-86859515D01*
X147964238Y-86803497D01*
X147885121Y-86782297D01*
X147855368Y-86759467D01*
X147850474Y-86722284D01*
X147870579Y-86694226D01*
X147952454Y-86639520D01*
X148169327Y-86449327D01*
X148359520Y-86232454D01*
X148519778Y-85992611D01*
X148647359Y-85733902D01*
X148740081Y-85460753D01*
X148796356Y-85177839D01*
X148815222Y-84890000D01*
X148796356Y-84602161D01*
X148740081Y-84319247D01*
X148647359Y-84046098D01*
X148519778Y-83787389D01*
X148466600Y-83707803D01*
X148359520Y-83547545D01*
X148270655Y-83446216D01*
X148169327Y-83330673D01*
X148017171Y-83197235D01*
X147952454Y-83140479D01*
X147712611Y-82980222D01*
X147453900Y-82852640D01*
X147180747Y-82759917D01*
X146952569Y-82714530D01*
X146897839Y-82703644D01*
X146897837Y-82703643D01*
X146897833Y-82703643D01*
X146610001Y-82684778D01*
X146609999Y-82684778D01*
X146322166Y-82703643D01*
X146039252Y-82759917D01*
X145766099Y-82852640D01*
X145507388Y-82980222D01*
X145267545Y-83140479D01*
X145050673Y-83330673D01*
X144860479Y-83547545D01*
X144700222Y-83787388D01*
X144572640Y-84046099D01*
X144479917Y-84319252D01*
X144423643Y-84602166D01*
X144404778Y-84889999D01*
X144404778Y-84890000D01*
X144423643Y-85177833D01*
X144479917Y-85460747D01*
X144572640Y-85733900D01*
X144700222Y-85992611D01*
X144860479Y-86232454D01*
X144914520Y-86294075D01*
X145050673Y-86449327D01*
X145166216Y-86550655D01*
X145267545Y-86639520D01*
X145335249Y-86684758D01*
X145356084Y-86715941D01*
X145348768Y-86752723D01*
X145317585Y-86773558D01*
X145308026Y-86774500D01*
X145196544Y-86774500D01*
X145161896Y-86760148D01*
X142281263Y-83879515D01*
X142184239Y-83823497D01*
X142184235Y-83823496D01*
X142076021Y-83794500D01*
X142076018Y-83794500D01*
X138069499Y-83794500D01*
X138034851Y-83780148D01*
X138020499Y-83745500D01*
X138020499Y-83325141D01*
X138020498Y-83325135D01*
X138017585Y-83300009D01*
X137972206Y-83197235D01*
X137972205Y-83197234D01*
X137972205Y-83197233D01*
X137892766Y-83117794D01*
X137892767Y-83117794D01*
X137789993Y-83072415D01*
X137777428Y-83070957D01*
X137764865Y-83069500D01*
X137764863Y-83069500D01*
X135975141Y-83069500D01*
X135975131Y-83069501D01*
X135950007Y-83072415D01*
X135847233Y-83117794D01*
X135767794Y-83197233D01*
X135722415Y-83300006D01*
X135719500Y-83325134D01*
X135719500Y-85114858D01*
X135719501Y-85114868D01*
X135722415Y-85139992D01*
X135767794Y-85242766D01*
X135847233Y-85322205D01*
X135950006Y-85367584D01*
X135950009Y-85367585D01*
X135975135Y-85370500D01*
X136441508Y-85370499D01*
X136476155Y-85384851D01*
X136490507Y-85419499D01*
X136476155Y-85454147D01*
X136457418Y-85465844D01*
X136322626Y-85512118D01*
X136322620Y-85512121D01*
X136124708Y-85619226D01*
X136124694Y-85619235D01*
X135947102Y-85757460D01*
X135794673Y-85923043D01*
X135671584Y-86111444D01*
X135671580Y-86111450D01*
X135581179Y-86317544D01*
X135533457Y-86506000D01*
X135000000Y-86506000D01*
X135000000Y-82299000D01*
X135014352Y-82264352D01*
X135049000Y-82250000D01*
X149201000Y-82250000D01*
X149235648Y-82264352D01*
G37*
%TD.AperFunction*%
%TD*%
M02*
