%TF.GenerationSoftware,KiCad,Pcbnew,8.0.5*%
%TF.CreationDate,2024-09-23T16:28:14-04:00*%
%TF.ProjectId,ICM-42670-P-Breakout-Board,49434d2d-3432-4363-9730-2d502d427265,rev?*%
%TF.SameCoordinates,Original*%
%TF.FileFunction,Copper,L2,Bot*%
%TF.FilePolarity,Positive*%
%FSLAX46Y46*%
G04 Gerber Fmt 4.6, Leading zero omitted, Abs format (unit mm)*
G04 Created by KiCad (PCBNEW 8.0.5) date 2024-09-23 16:28:14*
%MOMM*%
%LPD*%
G01*
G04 APERTURE LIST*
%TA.AperFunction,ComponentPad*%
%ADD10C,2.600000*%
%TD*%
%TA.AperFunction,ConnectorPad*%
%ADD11C,3.800000*%
%TD*%
%TA.AperFunction,ComponentPad*%
%ADD12R,1.700000X1.700000*%
%TD*%
%TA.AperFunction,ComponentPad*%
%ADD13O,1.700000X1.700000*%
%TD*%
%TA.AperFunction,ViaPad*%
%ADD14C,0.800000*%
%TD*%
%TA.AperFunction,Conductor*%
%ADD15C,0.250000*%
%TD*%
G04 APERTURE END LIST*
D10*
%TO.P,H2,1*%
%TO.N,N/C*%
X146610000Y-103860000D03*
D11*
X146610000Y-103860000D03*
%TD*%
D10*
%TO.P,H1,1*%
%TO.N,N/C*%
X146610000Y-84890000D03*
D11*
X146610000Y-84890000D03*
%TD*%
D12*
%TO.P,J1,1,Pin_1*%
%TO.N,/VCC*%
X136870000Y-84220000D03*
D13*
%TO.P,J1,2,Pin_2*%
%TO.N,GND*%
X136870000Y-86760000D03*
%TO.P,J1,3,Pin_3*%
%TO.N,/SCL{slash}SCLK*%
X136870000Y-89300000D03*
%TO.P,J1,4,Pin_4*%
%TO.N,/SDA{slash}SDIO{slash}SDI*%
X136870000Y-91840000D03*
%TO.P,J1,5,Pin_5*%
%TO.N,/SDO{slash}ADO*%
X136870000Y-94380000D03*
%TO.P,J1,6,Pin_6*%
%TO.N,/INT1*%
X136870000Y-96920000D03*
%TO.P,J1,7,Pin_7*%
%TO.N,/INT2*%
X136870000Y-99460000D03*
%TO.P,J1,8,Pin_8*%
%TO.N,/CS*%
X136870000Y-102000000D03*
%TO.P,J1,9,Pin_9*%
%TO.N,/FSYNC*%
X136870000Y-104540000D03*
%TD*%
D14*
%TO.N,GND*%
X142900000Y-99000000D03*
X144100000Y-87800000D03*
X147600000Y-96900000D03*
X141600000Y-92500000D03*
%TO.N,/FSYNC*%
X145500000Y-95900000D03*
%TO.N,/INT2*%
X146103165Y-92422891D03*
X138675500Y-100300000D03*
%TO.N,/CS*%
X144400000Y-89600000D03*
X140000000Y-97800000D03*
%TD*%
D15*
%TO.N,GND*%
X147600000Y-96900000D02*
X145500000Y-99000000D01*
X145500000Y-99000000D02*
X142900000Y-99000000D01*
%TO.N,/FSYNC*%
X140400000Y-100475386D02*
X140400000Y-102900000D01*
X138760000Y-104540000D02*
X136870000Y-104540000D01*
X144975386Y-95900000D02*
X140400000Y-100475386D01*
X140400000Y-102900000D02*
X138760000Y-104540000D01*
X145500000Y-95900000D02*
X144975386Y-95900000D01*
%TO.N,/INT2*%
X143000000Y-97000000D02*
X146103165Y-93896835D01*
X139700000Y-100300000D02*
X143000000Y-97000000D01*
X138675500Y-100300000D02*
X139700000Y-100300000D01*
X146103165Y-93896835D02*
X146103165Y-92422891D01*
%TO.N,/CS*%
X140000000Y-97800000D02*
X144400000Y-93400000D01*
X144400000Y-93400000D02*
X144400000Y-89600000D01*
%TD*%
%TA.AperFunction,Conductor*%
%TO.N,GND*%
G36*
X149235648Y-82264352D02*
G01*
X149250000Y-82299000D01*
X149250000Y-106451000D01*
X149235648Y-106485648D01*
X149201000Y-106500000D01*
X135049000Y-106500000D01*
X135014352Y-106485648D01*
X135000000Y-106451000D01*
X135000000Y-104540000D01*
X135714571Y-104540000D01*
X135734243Y-104752306D01*
X135734244Y-104752312D01*
X135792593Y-104957384D01*
X135792597Y-104957394D01*
X135887632Y-105148252D01*
X135887635Y-105148256D01*
X136016125Y-105318404D01*
X136016128Y-105318407D01*
X136173693Y-105462048D01*
X136173694Y-105462049D01*
X136173698Y-105462052D01*
X136354981Y-105574298D01*
X136354984Y-105574299D01*
X136553796Y-105651319D01*
X136553797Y-105651319D01*
X136553802Y-105651321D01*
X136763390Y-105690500D01*
X136763392Y-105690500D01*
X136976608Y-105690500D01*
X136976610Y-105690500D01*
X137186198Y-105651321D01*
X137385019Y-105574298D01*
X137566302Y-105462052D01*
X137723872Y-105318407D01*
X137852366Y-105148255D01*
X137929843Y-104992659D01*
X137958134Y-104968040D01*
X137973706Y-104965500D01*
X138816021Y-104965500D01*
X138816021Y-104965499D01*
X138924237Y-104936503D01*
X139021263Y-104880485D01*
X140041747Y-103859999D01*
X144404778Y-103859999D01*
X144404778Y-103860000D01*
X144423643Y-104147833D01*
X144479917Y-104430747D01*
X144572640Y-104703900D01*
X144700222Y-104962611D01*
X144860479Y-105202454D01*
X144961808Y-105317997D01*
X145050673Y-105419327D01*
X145166216Y-105520655D01*
X145267545Y-105609520D01*
X145388741Y-105690500D01*
X145507389Y-105769778D01*
X145766098Y-105897359D01*
X146039247Y-105990081D01*
X146322161Y-106046356D01*
X146562026Y-106062077D01*
X146609999Y-106065222D01*
X146610000Y-106065222D01*
X146610001Y-106065222D01*
X146651119Y-106062526D01*
X146897839Y-106046356D01*
X147180753Y-105990081D01*
X147453902Y-105897359D01*
X147712611Y-105769778D01*
X147952454Y-105609520D01*
X148169327Y-105419327D01*
X148359520Y-105202454D01*
X148519778Y-104962611D01*
X148647359Y-104703902D01*
X148740081Y-104430753D01*
X148796356Y-104147839D01*
X148815222Y-103860000D01*
X148796356Y-103572161D01*
X148740081Y-103289247D01*
X148647359Y-103016098D01*
X148519778Y-102757389D01*
X148466600Y-102677803D01*
X148359520Y-102517545D01*
X148270655Y-102416216D01*
X148169327Y-102300673D01*
X148067997Y-102211808D01*
X147952454Y-102110479D01*
X147712611Y-101950222D01*
X147453900Y-101822640D01*
X147180747Y-101729917D01*
X146952569Y-101684530D01*
X146897839Y-101673644D01*
X146897837Y-101673643D01*
X146897833Y-101673643D01*
X146610001Y-101654778D01*
X146609999Y-101654778D01*
X146322166Y-101673643D01*
X146039252Y-101729917D01*
X145766099Y-101822640D01*
X145507388Y-101950222D01*
X145267545Y-102110479D01*
X145050673Y-102300673D01*
X144860479Y-102517545D01*
X144700222Y-102757388D01*
X144572640Y-103016099D01*
X144479917Y-103289252D01*
X144423643Y-103572166D01*
X144404778Y-103859999D01*
X140041747Y-103859999D01*
X140657228Y-103244517D01*
X140657233Y-103244514D01*
X140661261Y-103240485D01*
X140661263Y-103240485D01*
X140740485Y-103161263D01*
X140796503Y-103064237D01*
X140825499Y-102956021D01*
X140825500Y-102956021D01*
X140825500Y-100671929D01*
X140839851Y-100637282D01*
X145012051Y-96465081D01*
X145046698Y-96450730D01*
X145079191Y-96463053D01*
X145099148Y-96480734D01*
X145249775Y-96559790D01*
X145414944Y-96600500D01*
X145585056Y-96600500D01*
X145750225Y-96559790D01*
X145900852Y-96480734D01*
X146028183Y-96367929D01*
X146124818Y-96227930D01*
X146185140Y-96068872D01*
X146205645Y-95900000D01*
X146185140Y-95731128D01*
X146124818Y-95572070D01*
X146028183Y-95432071D01*
X145900852Y-95319266D01*
X145900844Y-95319262D01*
X145900843Y-95319261D01*
X145750224Y-95240209D01*
X145585056Y-95199500D01*
X145520543Y-95199500D01*
X145485895Y-95185148D01*
X145471543Y-95150500D01*
X145485895Y-95115852D01*
X145804363Y-94797384D01*
X146443650Y-94158098D01*
X146499668Y-94061072D01*
X146528664Y-93952856D01*
X146528665Y-93952856D01*
X146528665Y-93003841D01*
X146543017Y-92969193D01*
X146545172Y-92967164D01*
X146631348Y-92890820D01*
X146727983Y-92750821D01*
X146788305Y-92591763D01*
X146808810Y-92422891D01*
X146788305Y-92254019D01*
X146727983Y-92094961D01*
X146698544Y-92052312D01*
X146631348Y-91954962D01*
X146504017Y-91842157D01*
X146504009Y-91842153D01*
X146504008Y-91842152D01*
X146353389Y-91763100D01*
X146188221Y-91722391D01*
X146018109Y-91722391D01*
X145852940Y-91763100D01*
X145702321Y-91842152D01*
X145702316Y-91842155D01*
X145702313Y-91842157D01*
X145702311Y-91842159D01*
X145574981Y-91954962D01*
X145478347Y-92094959D01*
X145478346Y-92094961D01*
X145418026Y-92254016D01*
X145418025Y-92254019D01*
X145397520Y-92422891D01*
X145418025Y-92591763D01*
X145428130Y-92618407D01*
X145478346Y-92750820D01*
X145478347Y-92750822D01*
X145563578Y-92874299D01*
X145574982Y-92890820D01*
X145643274Y-92951321D01*
X145661158Y-92967164D01*
X145677576Y-93000882D01*
X145677665Y-93003841D01*
X145677665Y-93700291D01*
X145663313Y-93734939D01*
X139538104Y-99860148D01*
X139503456Y-99874500D01*
X139258687Y-99874500D01*
X139224039Y-99860148D01*
X139218361Y-99853336D01*
X139203683Y-99832071D01*
X139076352Y-99719266D01*
X139076344Y-99719262D01*
X139076343Y-99719261D01*
X138925724Y-99640209D01*
X138760556Y-99599500D01*
X138590444Y-99599500D01*
X138425275Y-99640209D01*
X138274656Y-99719261D01*
X138274651Y-99719264D01*
X138274648Y-99719266D01*
X138274646Y-99719268D01*
X138147316Y-99832071D01*
X138050682Y-99972068D01*
X138050681Y-99972070D01*
X137990361Y-100131125D01*
X137990360Y-100131128D01*
X137969855Y-100300000D01*
X137990360Y-100468872D01*
X137990361Y-100468874D01*
X138050681Y-100627929D01*
X138050682Y-100627931D01*
X138147316Y-100767928D01*
X138147317Y-100767929D01*
X138274648Y-100880734D01*
X138425275Y-100959790D01*
X138590444Y-101000500D01*
X138760556Y-101000500D01*
X138925725Y-100959790D01*
X139076352Y-100880734D01*
X139203683Y-100767929D01*
X139218361Y-100746663D01*
X139249855Y-100726303D01*
X139258687Y-100725500D01*
X139756021Y-100725500D01*
X139756021Y-100725499D01*
X139864237Y-100696503D01*
X139901002Y-100675276D01*
X139938181Y-100670381D01*
X139967935Y-100693211D01*
X139974500Y-100717712D01*
X139974500Y-102703456D01*
X139960148Y-102738104D01*
X138598104Y-104100148D01*
X138563456Y-104114500D01*
X137973706Y-104114500D01*
X137939058Y-104100148D01*
X137929843Y-104087341D01*
X137852367Y-103931747D01*
X137852366Y-103931746D01*
X137852366Y-103931745D01*
X137723872Y-103761593D01*
X137723871Y-103761592D01*
X137566306Y-103617951D01*
X137566303Y-103617949D01*
X137566302Y-103617948D01*
X137385019Y-103505702D01*
X137385016Y-103505701D01*
X137385015Y-103505700D01*
X137186203Y-103428680D01*
X137186198Y-103428679D01*
X136976610Y-103389500D01*
X136763390Y-103389500D01*
X136605236Y-103419064D01*
X136553796Y-103428680D01*
X136354984Y-103505700D01*
X136173693Y-103617951D01*
X136016128Y-103761592D01*
X136016125Y-103761595D01*
X135887635Y-103931743D01*
X135887632Y-103931747D01*
X135792597Y-104122605D01*
X135792593Y-104122615D01*
X135734244Y-104327687D01*
X135734243Y-104327693D01*
X135714571Y-104540000D01*
X135000000Y-104540000D01*
X135000000Y-102000000D01*
X135714571Y-102000000D01*
X135734243Y-102212306D01*
X135734244Y-102212312D01*
X135792593Y-102417384D01*
X135792597Y-102417394D01*
X135887632Y-102608252D01*
X135887635Y-102608256D01*
X136016125Y-102778404D01*
X136016128Y-102778407D01*
X136173693Y-102922048D01*
X136173694Y-102922049D01*
X136173698Y-102922052D01*
X136354981Y-103034298D01*
X136354984Y-103034299D01*
X136553796Y-103111319D01*
X136553797Y-103111319D01*
X136553802Y-103111321D01*
X136763390Y-103150500D01*
X136763392Y-103150500D01*
X136976608Y-103150500D01*
X136976610Y-103150500D01*
X137186198Y-103111321D01*
X137385019Y-103034298D01*
X137566302Y-102922052D01*
X137723872Y-102778407D01*
X137852366Y-102608255D01*
X137947405Y-102417389D01*
X138005756Y-102212310D01*
X138025429Y-102000000D01*
X138005756Y-101787690D01*
X137947405Y-101582611D01*
X137852366Y-101391745D01*
X137723872Y-101221593D01*
X137723871Y-101221592D01*
X137566306Y-101077951D01*
X137566303Y-101077949D01*
X137566302Y-101077948D01*
X137385019Y-100965702D01*
X137385016Y-100965701D01*
X137385015Y-100965700D01*
X137186203Y-100888680D01*
X137186198Y-100888679D01*
X136976610Y-100849500D01*
X136763390Y-100849500D01*
X136605236Y-100879064D01*
X136553796Y-100888680D01*
X136354984Y-100965700D01*
X136173693Y-101077951D01*
X136016128Y-101221592D01*
X136016125Y-101221595D01*
X135887635Y-101391743D01*
X135887632Y-101391747D01*
X135792597Y-101582605D01*
X135792593Y-101582615D01*
X135734244Y-101787687D01*
X135734243Y-101787693D01*
X135714571Y-102000000D01*
X135000000Y-102000000D01*
X135000000Y-99460000D01*
X135714571Y-99460000D01*
X135734243Y-99672306D01*
X135734244Y-99672312D01*
X135792593Y-99877384D01*
X135792597Y-99877394D01*
X135887632Y-100068252D01*
X135887635Y-100068256D01*
X136016125Y-100238404D01*
X136016128Y-100238407D01*
X136173693Y-100382048D01*
X136173694Y-100382049D01*
X136173698Y-100382052D01*
X136354981Y-100494298D01*
X136354984Y-100494299D01*
X136553796Y-100571319D01*
X136553797Y-100571319D01*
X136553802Y-100571321D01*
X136763390Y-100610500D01*
X136763392Y-100610500D01*
X136976608Y-100610500D01*
X136976610Y-100610500D01*
X137186198Y-100571321D01*
X137385019Y-100494298D01*
X137566302Y-100382052D01*
X137723872Y-100238407D01*
X137852366Y-100068255D01*
X137947405Y-99877389D01*
X138005756Y-99672310D01*
X138025429Y-99460000D01*
X138005756Y-99247690D01*
X137947405Y-99042611D01*
X137852366Y-98851745D01*
X137723872Y-98681593D01*
X137723871Y-98681592D01*
X137566306Y-98537951D01*
X137566303Y-98537949D01*
X137566302Y-98537948D01*
X137385019Y-98425702D01*
X137385016Y-98425701D01*
X137385015Y-98425700D01*
X137186203Y-98348680D01*
X137186198Y-98348679D01*
X136976610Y-98309500D01*
X136763390Y-98309500D01*
X136605236Y-98339064D01*
X136553796Y-98348680D01*
X136354984Y-98425700D01*
X136173693Y-98537951D01*
X136016128Y-98681592D01*
X136016125Y-98681595D01*
X135887635Y-98851743D01*
X135887632Y-98851747D01*
X135792597Y-99042605D01*
X135792593Y-99042615D01*
X135734244Y-99247687D01*
X135734243Y-99247693D01*
X135714571Y-99460000D01*
X135000000Y-99460000D01*
X135000000Y-96920000D01*
X135714571Y-96920000D01*
X135734243Y-97132306D01*
X135734244Y-97132312D01*
X135792593Y-97337384D01*
X135792597Y-97337394D01*
X135887632Y-97528252D01*
X135887635Y-97528256D01*
X136016125Y-97698404D01*
X136016128Y-97698407D01*
X136173693Y-97842048D01*
X136173694Y-97842049D01*
X136173698Y-97842052D01*
X136354981Y-97954298D01*
X136354984Y-97954299D01*
X136553796Y-98031319D01*
X136553797Y-98031319D01*
X136553802Y-98031321D01*
X136763390Y-98070500D01*
X136763392Y-98070500D01*
X136976608Y-98070500D01*
X136976610Y-98070500D01*
X137186198Y-98031321D01*
X137385019Y-97954298D01*
X137566302Y-97842052D01*
X137612431Y-97800000D01*
X139294355Y-97800000D01*
X139314860Y-97968872D01*
X139314861Y-97968874D01*
X139375181Y-98127929D01*
X139375182Y-98127931D01*
X139471816Y-98267928D01*
X139471817Y-98267929D01*
X139599148Y-98380734D01*
X139749775Y-98459790D01*
X139914944Y-98500500D01*
X140085056Y-98500500D01*
X140250225Y-98459790D01*
X140400852Y-98380734D01*
X140528183Y-98267929D01*
X140624818Y-98127930D01*
X140685140Y-97968872D01*
X140705645Y-97800000D01*
X140697270Y-97731033D01*
X140707341Y-97694910D01*
X140711257Y-97690489D01*
X144740485Y-93661263D01*
X144796503Y-93564237D01*
X144825499Y-93456021D01*
X144825500Y-93456021D01*
X144825500Y-90180950D01*
X144839852Y-90146302D01*
X144842007Y-90144273D01*
X144928183Y-90067929D01*
X145024818Y-89927930D01*
X145085140Y-89768872D01*
X145105645Y-89600000D01*
X145085140Y-89431128D01*
X145024818Y-89272070D01*
X144928183Y-89132071D01*
X144800852Y-89019266D01*
X144800844Y-89019262D01*
X144800843Y-89019261D01*
X144650224Y-88940209D01*
X144485056Y-88899500D01*
X144314944Y-88899500D01*
X144149775Y-88940209D01*
X143999156Y-89019261D01*
X143999151Y-89019264D01*
X143999148Y-89019266D01*
X143999146Y-89019268D01*
X143871816Y-89132071D01*
X143775182Y-89272068D01*
X143775181Y-89272070D01*
X143714861Y-89431125D01*
X143714860Y-89431128D01*
X143694355Y-89600000D01*
X143714860Y-89768872D01*
X143714861Y-89768874D01*
X143775181Y-89927929D01*
X143775182Y-89927931D01*
X143871816Y-90067928D01*
X143871817Y-90067929D01*
X143883644Y-90078407D01*
X143957993Y-90144273D01*
X143974411Y-90177991D01*
X143974500Y-90180950D01*
X143974500Y-93203455D01*
X143960148Y-93238103D01*
X140113103Y-97085148D01*
X140078455Y-97099500D01*
X139914944Y-97099500D01*
X139749775Y-97140209D01*
X139599156Y-97219261D01*
X139599151Y-97219264D01*
X139599148Y-97219266D01*
X139599146Y-97219268D01*
X139471816Y-97332071D01*
X139375182Y-97472068D01*
X139375181Y-97472070D01*
X139314861Y-97631125D01*
X139314860Y-97631128D01*
X139294355Y-97800000D01*
X137612431Y-97800000D01*
X137723872Y-97698407D01*
X137852366Y-97528255D01*
X137947405Y-97337389D01*
X138005756Y-97132310D01*
X138025429Y-96920000D01*
X138005756Y-96707690D01*
X137947405Y-96502611D01*
X137852366Y-96311745D01*
X137723872Y-96141593D01*
X137644104Y-96068874D01*
X137566306Y-95997951D01*
X137566303Y-95997949D01*
X137566302Y-95997948D01*
X137385019Y-95885702D01*
X137385016Y-95885701D01*
X137385015Y-95885700D01*
X137186203Y-95808680D01*
X137186198Y-95808679D01*
X136976610Y-95769500D01*
X136763390Y-95769500D01*
X136605236Y-95799064D01*
X136553796Y-95808680D01*
X136354984Y-95885700D01*
X136173693Y-95997951D01*
X136016128Y-96141592D01*
X136016125Y-96141595D01*
X135887635Y-96311743D01*
X135887632Y-96311747D01*
X135792597Y-96502605D01*
X135792593Y-96502615D01*
X135734244Y-96707687D01*
X135734243Y-96707693D01*
X135714571Y-96920000D01*
X135000000Y-96920000D01*
X135000000Y-94380000D01*
X135714571Y-94380000D01*
X135734243Y-94592306D01*
X135734244Y-94592312D01*
X135792593Y-94797384D01*
X135792597Y-94797394D01*
X135887632Y-94988252D01*
X135887635Y-94988256D01*
X136016125Y-95158404D01*
X136016128Y-95158407D01*
X136173693Y-95302048D01*
X136173694Y-95302049D01*
X136173698Y-95302052D01*
X136354981Y-95414298D01*
X136354984Y-95414299D01*
X136553796Y-95491319D01*
X136553797Y-95491319D01*
X136553802Y-95491321D01*
X136763390Y-95530500D01*
X136763392Y-95530500D01*
X136976608Y-95530500D01*
X136976610Y-95530500D01*
X137186198Y-95491321D01*
X137385019Y-95414298D01*
X137566302Y-95302052D01*
X137723872Y-95158407D01*
X137852366Y-94988255D01*
X137947405Y-94797389D01*
X138005756Y-94592310D01*
X138025429Y-94380000D01*
X138005756Y-94167690D01*
X137947405Y-93962611D01*
X137852366Y-93771745D01*
X137723872Y-93601593D01*
X137682893Y-93564235D01*
X137566306Y-93457951D01*
X137566303Y-93457949D01*
X137566302Y-93457948D01*
X137385019Y-93345702D01*
X137385016Y-93345701D01*
X137385015Y-93345700D01*
X137186203Y-93268680D01*
X137186198Y-93268679D01*
X136976610Y-93229500D01*
X136763390Y-93229500D01*
X136605236Y-93259064D01*
X136553796Y-93268680D01*
X136354984Y-93345700D01*
X136173693Y-93457951D01*
X136016128Y-93601592D01*
X136016125Y-93601595D01*
X135887635Y-93771743D01*
X135887632Y-93771747D01*
X135792597Y-93962605D01*
X135792593Y-93962615D01*
X135734244Y-94167687D01*
X135734243Y-94167693D01*
X135714571Y-94380000D01*
X135000000Y-94380000D01*
X135000000Y-91840000D01*
X135714571Y-91840000D01*
X135734243Y-92052306D01*
X135734244Y-92052312D01*
X135792593Y-92257384D01*
X135792597Y-92257394D01*
X135887632Y-92448252D01*
X135887635Y-92448256D01*
X136016125Y-92618404D01*
X136016128Y-92618407D01*
X136173693Y-92762048D01*
X136173694Y-92762049D01*
X136173698Y-92762052D01*
X136354981Y-92874298D01*
X136354984Y-92874299D01*
X136553796Y-92951319D01*
X136553797Y-92951319D01*
X136553802Y-92951321D01*
X136763390Y-92990500D01*
X136763392Y-92990500D01*
X136976608Y-92990500D01*
X136976610Y-92990500D01*
X137186198Y-92951321D01*
X137385019Y-92874298D01*
X137566302Y-92762052D01*
X137723872Y-92618407D01*
X137852366Y-92448255D01*
X137947405Y-92257389D01*
X138005756Y-92052310D01*
X138025429Y-91840000D01*
X138005756Y-91627690D01*
X137947405Y-91422611D01*
X137852366Y-91231745D01*
X137723872Y-91061593D01*
X137723871Y-91061592D01*
X137566306Y-90917951D01*
X137566303Y-90917949D01*
X137566302Y-90917948D01*
X137385019Y-90805702D01*
X137385016Y-90805701D01*
X137385015Y-90805700D01*
X137186203Y-90728680D01*
X137186198Y-90728679D01*
X136976610Y-90689500D01*
X136763390Y-90689500D01*
X136605236Y-90719064D01*
X136553796Y-90728680D01*
X136354984Y-90805700D01*
X136173693Y-90917951D01*
X136016128Y-91061592D01*
X136016125Y-91061595D01*
X135887635Y-91231743D01*
X135887632Y-91231747D01*
X135792597Y-91422605D01*
X135792593Y-91422615D01*
X135734244Y-91627687D01*
X135734243Y-91627693D01*
X135714571Y-91840000D01*
X135000000Y-91840000D01*
X135000000Y-86506000D01*
X135533457Y-86506000D01*
X136439297Y-86506000D01*
X136404075Y-86567007D01*
X136370000Y-86694174D01*
X136370000Y-86825826D01*
X136404075Y-86952993D01*
X136439297Y-87014000D01*
X135533457Y-87014000D01*
X135581179Y-87202455D01*
X135671580Y-87408549D01*
X135671584Y-87408555D01*
X135794673Y-87596956D01*
X135947102Y-87762539D01*
X136124694Y-87900764D01*
X136124708Y-87900773D01*
X136322620Y-88007878D01*
X136322630Y-88007882D01*
X136535486Y-88080956D01*
X136576394Y-88087782D01*
X136608207Y-88107641D01*
X136616661Y-88144179D01*
X136596802Y-88175992D01*
X136577335Y-88184279D01*
X136553799Y-88188679D01*
X136354984Y-88265700D01*
X136173693Y-88377951D01*
X136016128Y-88521592D01*
X136016125Y-88521595D01*
X135887635Y-88691743D01*
X135887632Y-88691747D01*
X135792597Y-88882605D01*
X135792593Y-88882615D01*
X135734244Y-89087687D01*
X135734243Y-89087693D01*
X135714571Y-89300000D01*
X135734243Y-89512306D01*
X135734244Y-89512312D01*
X135792593Y-89717384D01*
X135792597Y-89717394D01*
X135887632Y-89908252D01*
X135887635Y-89908256D01*
X136016125Y-90078404D01*
X136016128Y-90078407D01*
X136173693Y-90222048D01*
X136173694Y-90222049D01*
X136173698Y-90222052D01*
X136354981Y-90334298D01*
X136354984Y-90334299D01*
X136553796Y-90411319D01*
X136553797Y-90411319D01*
X136553802Y-90411321D01*
X136763390Y-90450500D01*
X136763392Y-90450500D01*
X136976608Y-90450500D01*
X136976610Y-90450500D01*
X137186198Y-90411321D01*
X137385019Y-90334298D01*
X137566302Y-90222052D01*
X137723872Y-90078407D01*
X137852366Y-89908255D01*
X137947405Y-89717389D01*
X138005756Y-89512310D01*
X138025429Y-89300000D01*
X138005756Y-89087690D01*
X137947405Y-88882611D01*
X137852366Y-88691745D01*
X137723872Y-88521593D01*
X137723871Y-88521592D01*
X137566306Y-88377951D01*
X137566303Y-88377949D01*
X137566302Y-88377948D01*
X137385019Y-88265702D01*
X137385016Y-88265701D01*
X137385015Y-88265700D01*
X137186199Y-88188679D01*
X137162665Y-88184279D01*
X137131244Y-88163804D01*
X137123505Y-88127109D01*
X137143980Y-88095688D01*
X137163606Y-88087782D01*
X137204513Y-88080956D01*
X137417369Y-88007882D01*
X137417379Y-88007878D01*
X137615291Y-87900773D01*
X137615305Y-87900764D01*
X137792897Y-87762539D01*
X137945326Y-87596956D01*
X138068415Y-87408555D01*
X138068419Y-87408549D01*
X138158820Y-87202455D01*
X138206543Y-87014000D01*
X137300703Y-87014000D01*
X137335925Y-86952993D01*
X137370000Y-86825826D01*
X137370000Y-86694174D01*
X137335925Y-86567007D01*
X137300703Y-86506000D01*
X138206543Y-86506000D01*
X138158820Y-86317544D01*
X138068419Y-86111450D01*
X138068415Y-86111444D01*
X137945326Y-85923043D01*
X137792897Y-85757460D01*
X137615305Y-85619235D01*
X137615291Y-85619226D01*
X137417379Y-85512121D01*
X137417369Y-85512117D01*
X137282581Y-85465844D01*
X137254470Y-85441020D01*
X137252146Y-85403589D01*
X137276970Y-85375478D01*
X137298489Y-85370499D01*
X137764864Y-85370499D01*
X137789991Y-85367585D01*
X137892765Y-85322206D01*
X137972206Y-85242765D01*
X138017585Y-85139991D01*
X138020500Y-85114865D01*
X138020500Y-84889999D01*
X144404778Y-84889999D01*
X144404778Y-84890000D01*
X144423643Y-85177833D01*
X144479917Y-85460747D01*
X144572640Y-85733900D01*
X144700222Y-85992611D01*
X144860479Y-86232454D01*
X144914520Y-86294075D01*
X145050673Y-86449327D01*
X145166216Y-86550655D01*
X145267545Y-86639520D01*
X145349341Y-86694174D01*
X145507389Y-86799778D01*
X145766098Y-86927359D01*
X146039247Y-87020081D01*
X146322161Y-87076356D01*
X146562026Y-87092077D01*
X146609999Y-87095222D01*
X146610000Y-87095222D01*
X146610001Y-87095222D01*
X146651119Y-87092526D01*
X146897839Y-87076356D01*
X147180753Y-87020081D01*
X147453902Y-86927359D01*
X147712611Y-86799778D01*
X147952454Y-86639520D01*
X148169327Y-86449327D01*
X148359520Y-86232454D01*
X148519778Y-85992611D01*
X148647359Y-85733902D01*
X148740081Y-85460753D01*
X148796356Y-85177839D01*
X148815222Y-84890000D01*
X148796356Y-84602161D01*
X148740081Y-84319247D01*
X148647359Y-84046098D01*
X148519778Y-83787389D01*
X148466600Y-83707803D01*
X148359520Y-83547545D01*
X148270655Y-83446216D01*
X148169327Y-83330673D01*
X148017171Y-83197235D01*
X147952454Y-83140479D01*
X147712611Y-82980222D01*
X147453900Y-82852640D01*
X147180747Y-82759917D01*
X146952569Y-82714530D01*
X146897839Y-82703644D01*
X146897837Y-82703643D01*
X146897833Y-82703643D01*
X146610001Y-82684778D01*
X146609999Y-82684778D01*
X146322166Y-82703643D01*
X146039252Y-82759917D01*
X145766099Y-82852640D01*
X145507388Y-82980222D01*
X145267545Y-83140479D01*
X145050673Y-83330673D01*
X144860479Y-83547545D01*
X144700222Y-83787388D01*
X144572640Y-84046099D01*
X144479917Y-84319252D01*
X144423643Y-84602166D01*
X144404778Y-84889999D01*
X138020500Y-84889999D01*
X138020499Y-83325136D01*
X138017585Y-83300009D01*
X137972206Y-83197235D01*
X137972205Y-83197234D01*
X137972205Y-83197233D01*
X137892766Y-83117794D01*
X137892767Y-83117794D01*
X137789993Y-83072415D01*
X137777428Y-83070957D01*
X137764865Y-83069500D01*
X137764863Y-83069500D01*
X135975141Y-83069500D01*
X135975131Y-83069501D01*
X135950007Y-83072415D01*
X135847233Y-83117794D01*
X135767794Y-83197233D01*
X135722415Y-83300006D01*
X135719500Y-83325134D01*
X135719500Y-85114858D01*
X135719501Y-85114868D01*
X135722415Y-85139992D01*
X135767794Y-85242766D01*
X135847233Y-85322205D01*
X135950006Y-85367584D01*
X135950009Y-85367585D01*
X135975135Y-85370500D01*
X136441508Y-85370499D01*
X136476155Y-85384851D01*
X136490507Y-85419499D01*
X136476155Y-85454147D01*
X136457418Y-85465844D01*
X136322626Y-85512118D01*
X136322620Y-85512121D01*
X136124708Y-85619226D01*
X136124694Y-85619235D01*
X135947102Y-85757460D01*
X135794673Y-85923043D01*
X135671584Y-86111444D01*
X135671580Y-86111450D01*
X135581179Y-86317544D01*
X135533457Y-86506000D01*
X135000000Y-86506000D01*
X135000000Y-82299000D01*
X135014352Y-82264352D01*
X135049000Y-82250000D01*
X149201000Y-82250000D01*
X149235648Y-82264352D01*
G37*
%TD.AperFunction*%
%TD*%
M02*
