%TF.GenerationSoftware,KiCad,Pcbnew,8.0.5*%
%TF.CreationDate,2024-09-23T16:28:10-04:00*%
%TF.ProjectId,ICM-42670-P-Breakout-Board,49434d2d-3432-4363-9730-2d502d427265,rev?*%
%TF.SameCoordinates,Original*%
%TF.FileFunction,Drillmap*%
%TF.FilePolarity,Positive*%
%FSLAX45Y45*%
G04 Gerber Fmt 4.5, Leading zero omitted, Abs format (unit mm)*
G04 Created by KiCad (PCBNEW 8.0.5) date 2024-09-23 16:28:10*
%MOMM*%
%LPD*%
G01*
G04 APERTURE LIST*
%ADD10C,0.100000*%
%ADD11C,0.200000*%
%ADD12C,0.220000*%
G04 APERTURE END LIST*
D10*
X13500000Y-8225000D02*
X14925000Y-8225000D01*
X14925000Y-10650000D01*
X13500000Y-10650000D01*
X13500000Y-8225000D01*
D11*
D10*
X13847550Y-10010000D02*
X13887550Y-10050000D01*
X13887550Y-10010000D02*
X13847550Y-10050000D01*
X13980000Y-9760000D02*
X14020000Y-9800000D01*
X14020000Y-9760000D02*
X13980000Y-9800000D01*
X14140000Y-9230000D02*
X14180000Y-9270000D01*
X14180000Y-9230000D02*
X14140000Y-9270000D01*
X14270000Y-9880000D02*
X14310000Y-9920000D01*
X14310000Y-9880000D02*
X14270000Y-9920000D01*
X14390000Y-8760000D02*
X14430000Y-8800000D01*
X14430000Y-8760000D02*
X14390000Y-8800000D01*
X14420000Y-8940000D02*
X14460000Y-8980000D01*
X14460000Y-8940000D02*
X14420000Y-8980000D01*
X14530000Y-9570000D02*
X14570000Y-9610000D01*
X14570000Y-9570000D02*
X14530000Y-9610000D01*
X14590316Y-9222289D02*
X14630316Y-9262289D01*
X14630316Y-9222289D02*
X14590316Y-9262289D01*
X14740000Y-9670000D02*
X14780000Y-9710000D01*
X14780000Y-9670000D02*
X14740000Y-9710000D01*
X13737000Y-8422000D02*
G75*
G02*
X13637000Y-8422000I-50000J0D01*
G01*
X13637000Y-8422000D02*
G75*
G02*
X13737000Y-8422000I50000J0D01*
G01*
X13737000Y-8676000D02*
G75*
G02*
X13637000Y-8676000I-50000J0D01*
G01*
X13637000Y-8676000D02*
G75*
G02*
X13737000Y-8676000I50000J0D01*
G01*
X13737000Y-8930000D02*
G75*
G02*
X13637000Y-8930000I-50000J0D01*
G01*
X13637000Y-8930000D02*
G75*
G02*
X13737000Y-8930000I50000J0D01*
G01*
X13737000Y-9184000D02*
G75*
G02*
X13637000Y-9184000I-50000J0D01*
G01*
X13637000Y-9184000D02*
G75*
G02*
X13737000Y-9184000I50000J0D01*
G01*
X13737000Y-9438000D02*
G75*
G02*
X13637000Y-9438000I-50000J0D01*
G01*
X13637000Y-9438000D02*
G75*
G02*
X13737000Y-9438000I50000J0D01*
G01*
X13737000Y-9692000D02*
G75*
G02*
X13637000Y-9692000I-50000J0D01*
G01*
X13637000Y-9692000D02*
G75*
G02*
X13737000Y-9692000I50000J0D01*
G01*
X13737000Y-9946000D02*
G75*
G02*
X13637000Y-9946000I-50000J0D01*
G01*
X13637000Y-9946000D02*
G75*
G02*
X13737000Y-9946000I50000J0D01*
G01*
X13737000Y-10200000D02*
G75*
G02*
X13637000Y-10200000I-50000J0D01*
G01*
X13637000Y-10200000D02*
G75*
G02*
X13737000Y-10200000I50000J0D01*
G01*
X13737000Y-10454000D02*
G75*
G02*
X13637000Y-10454000I-50000J0D01*
G01*
X13637000Y-10454000D02*
G75*
G02*
X13737000Y-10454000I50000J0D01*
G01*
D12*
X14661000Y-8379000D02*
X14661000Y-8599000D01*
X14551000Y-8489000D02*
X14771000Y-8489000D01*
X14661000Y-10276000D02*
X14661000Y-10496000D01*
X14551000Y-10386000D02*
X14771000Y-10386000D01*
D11*
X13755777Y-10966484D02*
X13755777Y-10766484D01*
X13755777Y-10766484D02*
X13803396Y-10766484D01*
X13803396Y-10766484D02*
X13831967Y-10776008D01*
X13831967Y-10776008D02*
X13851015Y-10795055D01*
X13851015Y-10795055D02*
X13860539Y-10814103D01*
X13860539Y-10814103D02*
X13870062Y-10852198D01*
X13870062Y-10852198D02*
X13870062Y-10880770D01*
X13870062Y-10880770D02*
X13860539Y-10918865D01*
X13860539Y-10918865D02*
X13851015Y-10937912D01*
X13851015Y-10937912D02*
X13831967Y-10956960D01*
X13831967Y-10956960D02*
X13803396Y-10966484D01*
X13803396Y-10966484D02*
X13755777Y-10966484D01*
X13955777Y-10966484D02*
X13955777Y-10833150D01*
X13955777Y-10871246D02*
X13965301Y-10852198D01*
X13965301Y-10852198D02*
X13974824Y-10842674D01*
X13974824Y-10842674D02*
X13993872Y-10833150D01*
X13993872Y-10833150D02*
X14012920Y-10833150D01*
X14079586Y-10966484D02*
X14079586Y-10833150D01*
X14079586Y-10766484D02*
X14070062Y-10776008D01*
X14070062Y-10776008D02*
X14079586Y-10785531D01*
X14079586Y-10785531D02*
X14089110Y-10776008D01*
X14089110Y-10776008D02*
X14079586Y-10766484D01*
X14079586Y-10766484D02*
X14079586Y-10785531D01*
X14203396Y-10966484D02*
X14184348Y-10956960D01*
X14184348Y-10956960D02*
X14174824Y-10937912D01*
X14174824Y-10937912D02*
X14174824Y-10766484D01*
X14308158Y-10966484D02*
X14289110Y-10956960D01*
X14289110Y-10956960D02*
X14279586Y-10937912D01*
X14279586Y-10937912D02*
X14279586Y-10766484D01*
X14536729Y-10966484D02*
X14536729Y-10766484D01*
X14536729Y-10766484D02*
X14603396Y-10909341D01*
X14603396Y-10909341D02*
X14670062Y-10766484D01*
X14670062Y-10766484D02*
X14670062Y-10966484D01*
X14851015Y-10966484D02*
X14851015Y-10861722D01*
X14851015Y-10861722D02*
X14841491Y-10842674D01*
X14841491Y-10842674D02*
X14822443Y-10833150D01*
X14822443Y-10833150D02*
X14784348Y-10833150D01*
X14784348Y-10833150D02*
X14765301Y-10842674D01*
X14851015Y-10956960D02*
X14831967Y-10966484D01*
X14831967Y-10966484D02*
X14784348Y-10966484D01*
X14784348Y-10966484D02*
X14765301Y-10956960D01*
X14765301Y-10956960D02*
X14755777Y-10937912D01*
X14755777Y-10937912D02*
X14755777Y-10918865D01*
X14755777Y-10918865D02*
X14765301Y-10899817D01*
X14765301Y-10899817D02*
X14784348Y-10890293D01*
X14784348Y-10890293D02*
X14831967Y-10890293D01*
X14831967Y-10890293D02*
X14851015Y-10880770D01*
X14946253Y-10833150D02*
X14946253Y-11033150D01*
X14946253Y-10842674D02*
X14965301Y-10833150D01*
X14965301Y-10833150D02*
X15003396Y-10833150D01*
X15003396Y-10833150D02*
X15022443Y-10842674D01*
X15022443Y-10842674D02*
X15031967Y-10852198D01*
X15031967Y-10852198D02*
X15041491Y-10871246D01*
X15041491Y-10871246D02*
X15041491Y-10928389D01*
X15041491Y-10928389D02*
X15031967Y-10947436D01*
X15031967Y-10947436D02*
X15022443Y-10956960D01*
X15022443Y-10956960D02*
X15003396Y-10966484D01*
X15003396Y-10966484D02*
X14965301Y-10966484D01*
X14965301Y-10966484D02*
X14946253Y-10956960D01*
X15127205Y-10947436D02*
X15136729Y-10956960D01*
X15136729Y-10956960D02*
X15127205Y-10966484D01*
X15127205Y-10966484D02*
X15117682Y-10956960D01*
X15117682Y-10956960D02*
X15127205Y-10947436D01*
X15127205Y-10947436D02*
X15127205Y-10966484D01*
X15127205Y-10842674D02*
X15136729Y-10852198D01*
X15136729Y-10852198D02*
X15127205Y-10861722D01*
X15127205Y-10861722D02*
X15117682Y-10852198D01*
X15117682Y-10852198D02*
X15127205Y-10842674D01*
X15127205Y-10842674D02*
X15127205Y-10861722D01*
D10*
X13455000Y-11275000D02*
X13495000Y-11315000D01*
X13495000Y-11275000D02*
X13455000Y-11315000D01*
D11*
X13793872Y-11186484D02*
X13812920Y-11186484D01*
X13812920Y-11186484D02*
X13831967Y-11196008D01*
X13831967Y-11196008D02*
X13841491Y-11205531D01*
X13841491Y-11205531D02*
X13851015Y-11224579D01*
X13851015Y-11224579D02*
X13860539Y-11262674D01*
X13860539Y-11262674D02*
X13860539Y-11310293D01*
X13860539Y-11310293D02*
X13851015Y-11348388D01*
X13851015Y-11348388D02*
X13841491Y-11367436D01*
X13841491Y-11367436D02*
X13831967Y-11376960D01*
X13831967Y-11376960D02*
X13812920Y-11386484D01*
X13812920Y-11386484D02*
X13793872Y-11386484D01*
X13793872Y-11386484D02*
X13774824Y-11376960D01*
X13774824Y-11376960D02*
X13765301Y-11367436D01*
X13765301Y-11367436D02*
X13755777Y-11348388D01*
X13755777Y-11348388D02*
X13746253Y-11310293D01*
X13746253Y-11310293D02*
X13746253Y-11262674D01*
X13746253Y-11262674D02*
X13755777Y-11224579D01*
X13755777Y-11224579D02*
X13765301Y-11205531D01*
X13765301Y-11205531D02*
X13774824Y-11196008D01*
X13774824Y-11196008D02*
X13793872Y-11186484D01*
X13946253Y-11367436D02*
X13955777Y-11376960D01*
X13955777Y-11376960D02*
X13946253Y-11386484D01*
X13946253Y-11386484D02*
X13936729Y-11376960D01*
X13936729Y-11376960D02*
X13946253Y-11367436D01*
X13946253Y-11367436D02*
X13946253Y-11386484D01*
X14127205Y-11253150D02*
X14127205Y-11386484D01*
X14079586Y-11176960D02*
X14031967Y-11319817D01*
X14031967Y-11319817D02*
X14155777Y-11319817D01*
X14270062Y-11186484D02*
X14289110Y-11186484D01*
X14289110Y-11186484D02*
X14308158Y-11196008D01*
X14308158Y-11196008D02*
X14317682Y-11205531D01*
X14317682Y-11205531D02*
X14327205Y-11224579D01*
X14327205Y-11224579D02*
X14336729Y-11262674D01*
X14336729Y-11262674D02*
X14336729Y-11310293D01*
X14336729Y-11310293D02*
X14327205Y-11348388D01*
X14327205Y-11348388D02*
X14317682Y-11367436D01*
X14317682Y-11367436D02*
X14308158Y-11376960D01*
X14308158Y-11376960D02*
X14289110Y-11386484D01*
X14289110Y-11386484D02*
X14270062Y-11386484D01*
X14270062Y-11386484D02*
X14251015Y-11376960D01*
X14251015Y-11376960D02*
X14241491Y-11367436D01*
X14241491Y-11367436D02*
X14231967Y-11348388D01*
X14231967Y-11348388D02*
X14222443Y-11310293D01*
X14222443Y-11310293D02*
X14222443Y-11262674D01*
X14222443Y-11262674D02*
X14231967Y-11224579D01*
X14231967Y-11224579D02*
X14241491Y-11205531D01*
X14241491Y-11205531D02*
X14251015Y-11196008D01*
X14251015Y-11196008D02*
X14270062Y-11186484D01*
X14460539Y-11186484D02*
X14479586Y-11186484D01*
X14479586Y-11186484D02*
X14498634Y-11196008D01*
X14498634Y-11196008D02*
X14508158Y-11205531D01*
X14508158Y-11205531D02*
X14517682Y-11224579D01*
X14517682Y-11224579D02*
X14527205Y-11262674D01*
X14527205Y-11262674D02*
X14527205Y-11310293D01*
X14527205Y-11310293D02*
X14517682Y-11348388D01*
X14517682Y-11348388D02*
X14508158Y-11367436D01*
X14508158Y-11367436D02*
X14498634Y-11376960D01*
X14498634Y-11376960D02*
X14479586Y-11386484D01*
X14479586Y-11386484D02*
X14460539Y-11386484D01*
X14460539Y-11386484D02*
X14441491Y-11376960D01*
X14441491Y-11376960D02*
X14431967Y-11367436D01*
X14431967Y-11367436D02*
X14422443Y-11348388D01*
X14422443Y-11348388D02*
X14412920Y-11310293D01*
X14412920Y-11310293D02*
X14412920Y-11262674D01*
X14412920Y-11262674D02*
X14422443Y-11224579D01*
X14422443Y-11224579D02*
X14431967Y-11205531D01*
X14431967Y-11205531D02*
X14441491Y-11196008D01*
X14441491Y-11196008D02*
X14460539Y-11186484D01*
X14612920Y-11386484D02*
X14612920Y-11253150D01*
X14612920Y-11272198D02*
X14622443Y-11262674D01*
X14622443Y-11262674D02*
X14641491Y-11253150D01*
X14641491Y-11253150D02*
X14670063Y-11253150D01*
X14670063Y-11253150D02*
X14689110Y-11262674D01*
X14689110Y-11262674D02*
X14698634Y-11281722D01*
X14698634Y-11281722D02*
X14698634Y-11386484D01*
X14698634Y-11281722D02*
X14708158Y-11262674D01*
X14708158Y-11262674D02*
X14727205Y-11253150D01*
X14727205Y-11253150D02*
X14755777Y-11253150D01*
X14755777Y-11253150D02*
X14774824Y-11262674D01*
X14774824Y-11262674D02*
X14784348Y-11281722D01*
X14784348Y-11281722D02*
X14784348Y-11386484D01*
X14879586Y-11386484D02*
X14879586Y-11253150D01*
X14879586Y-11272198D02*
X14889110Y-11262674D01*
X14889110Y-11262674D02*
X14908158Y-11253150D01*
X14908158Y-11253150D02*
X14936729Y-11253150D01*
X14936729Y-11253150D02*
X14955777Y-11262674D01*
X14955777Y-11262674D02*
X14965301Y-11281722D01*
X14965301Y-11281722D02*
X14965301Y-11386484D01*
X14965301Y-11281722D02*
X14974824Y-11262674D01*
X14974824Y-11262674D02*
X14993872Y-11253150D01*
X14993872Y-11253150D02*
X15022443Y-11253150D01*
X15022443Y-11253150D02*
X15041491Y-11262674D01*
X15041491Y-11262674D02*
X15051015Y-11281722D01*
X15051015Y-11281722D02*
X15051015Y-11386484D01*
X15441491Y-11176960D02*
X15270063Y-11434103D01*
X15698634Y-11186484D02*
X15717682Y-11186484D01*
X15717682Y-11186484D02*
X15736729Y-11196008D01*
X15736729Y-11196008D02*
X15746253Y-11205531D01*
X15746253Y-11205531D02*
X15755777Y-11224579D01*
X15755777Y-11224579D02*
X15765301Y-11262674D01*
X15765301Y-11262674D02*
X15765301Y-11310293D01*
X15765301Y-11310293D02*
X15755777Y-11348388D01*
X15755777Y-11348388D02*
X15746253Y-11367436D01*
X15746253Y-11367436D02*
X15736729Y-11376960D01*
X15736729Y-11376960D02*
X15717682Y-11386484D01*
X15717682Y-11386484D02*
X15698634Y-11386484D01*
X15698634Y-11386484D02*
X15679586Y-11376960D01*
X15679586Y-11376960D02*
X15670063Y-11367436D01*
X15670063Y-11367436D02*
X15660539Y-11348388D01*
X15660539Y-11348388D02*
X15651015Y-11310293D01*
X15651015Y-11310293D02*
X15651015Y-11262674D01*
X15651015Y-11262674D02*
X15660539Y-11224579D01*
X15660539Y-11224579D02*
X15670063Y-11205531D01*
X15670063Y-11205531D02*
X15679586Y-11196008D01*
X15679586Y-11196008D02*
X15698634Y-11186484D01*
X15851015Y-11367436D02*
X15860539Y-11376960D01*
X15860539Y-11376960D02*
X15851015Y-11386484D01*
X15851015Y-11386484D02*
X15841491Y-11376960D01*
X15841491Y-11376960D02*
X15851015Y-11367436D01*
X15851015Y-11367436D02*
X15851015Y-11386484D01*
X15984348Y-11186484D02*
X16003396Y-11186484D01*
X16003396Y-11186484D02*
X16022444Y-11196008D01*
X16022444Y-11196008D02*
X16031967Y-11205531D01*
X16031967Y-11205531D02*
X16041491Y-11224579D01*
X16041491Y-11224579D02*
X16051015Y-11262674D01*
X16051015Y-11262674D02*
X16051015Y-11310293D01*
X16051015Y-11310293D02*
X16041491Y-11348388D01*
X16041491Y-11348388D02*
X16031967Y-11367436D01*
X16031967Y-11367436D02*
X16022444Y-11376960D01*
X16022444Y-11376960D02*
X16003396Y-11386484D01*
X16003396Y-11386484D02*
X15984348Y-11386484D01*
X15984348Y-11386484D02*
X15965301Y-11376960D01*
X15965301Y-11376960D02*
X15955777Y-11367436D01*
X15955777Y-11367436D02*
X15946253Y-11348388D01*
X15946253Y-11348388D02*
X15936729Y-11310293D01*
X15936729Y-11310293D02*
X15936729Y-11262674D01*
X15936729Y-11262674D02*
X15946253Y-11224579D01*
X15946253Y-11224579D02*
X15955777Y-11205531D01*
X15955777Y-11205531D02*
X15965301Y-11196008D01*
X15965301Y-11196008D02*
X15984348Y-11186484D01*
X16241491Y-11386484D02*
X16127206Y-11386484D01*
X16184348Y-11386484D02*
X16184348Y-11186484D01*
X16184348Y-11186484D02*
X16165301Y-11215055D01*
X16165301Y-11215055D02*
X16146253Y-11234103D01*
X16146253Y-11234103D02*
X16127206Y-11243627D01*
X16422444Y-11186484D02*
X16327206Y-11186484D01*
X16327206Y-11186484D02*
X16317682Y-11281722D01*
X16317682Y-11281722D02*
X16327206Y-11272198D01*
X16327206Y-11272198D02*
X16346253Y-11262674D01*
X16346253Y-11262674D02*
X16393872Y-11262674D01*
X16393872Y-11262674D02*
X16412920Y-11272198D01*
X16412920Y-11272198D02*
X16422444Y-11281722D01*
X16422444Y-11281722D02*
X16431967Y-11300769D01*
X16431967Y-11300769D02*
X16431967Y-11348388D01*
X16431967Y-11348388D02*
X16422444Y-11367436D01*
X16422444Y-11367436D02*
X16412920Y-11376960D01*
X16412920Y-11376960D02*
X16393872Y-11386484D01*
X16393872Y-11386484D02*
X16346253Y-11386484D01*
X16346253Y-11386484D02*
X16327206Y-11376960D01*
X16327206Y-11376960D02*
X16317682Y-11367436D01*
X16498634Y-11186484D02*
X16631967Y-11186484D01*
X16631967Y-11186484D02*
X16546253Y-11386484D01*
X16698634Y-11186484D02*
X16698634Y-11224579D01*
X16774825Y-11186484D02*
X16774825Y-11224579D01*
X17070063Y-11462674D02*
X17060539Y-11453150D01*
X17060539Y-11453150D02*
X17041491Y-11424579D01*
X17041491Y-11424579D02*
X17031968Y-11405531D01*
X17031968Y-11405531D02*
X17022444Y-11376960D01*
X17022444Y-11376960D02*
X17012920Y-11329341D01*
X17012920Y-11329341D02*
X17012920Y-11291246D01*
X17012920Y-11291246D02*
X17022444Y-11243627D01*
X17022444Y-11243627D02*
X17031968Y-11215055D01*
X17031968Y-11215055D02*
X17041491Y-11196008D01*
X17041491Y-11196008D02*
X17060539Y-11167436D01*
X17060539Y-11167436D02*
X17070063Y-11157912D01*
X17155777Y-11386484D02*
X17193872Y-11386484D01*
X17193872Y-11386484D02*
X17212920Y-11376960D01*
X17212920Y-11376960D02*
X17222444Y-11367436D01*
X17222444Y-11367436D02*
X17241491Y-11338865D01*
X17241491Y-11338865D02*
X17251015Y-11300769D01*
X17251015Y-11300769D02*
X17251015Y-11224579D01*
X17251015Y-11224579D02*
X17241491Y-11205531D01*
X17241491Y-11205531D02*
X17231968Y-11196008D01*
X17231968Y-11196008D02*
X17212920Y-11186484D01*
X17212920Y-11186484D02*
X17174825Y-11186484D01*
X17174825Y-11186484D02*
X17155777Y-11196008D01*
X17155777Y-11196008D02*
X17146253Y-11205531D01*
X17146253Y-11205531D02*
X17136730Y-11224579D01*
X17136730Y-11224579D02*
X17136730Y-11272198D01*
X17136730Y-11272198D02*
X17146253Y-11291246D01*
X17146253Y-11291246D02*
X17155777Y-11300769D01*
X17155777Y-11300769D02*
X17174825Y-11310293D01*
X17174825Y-11310293D02*
X17212920Y-11310293D01*
X17212920Y-11310293D02*
X17231968Y-11300769D01*
X17231968Y-11300769D02*
X17241491Y-11291246D01*
X17241491Y-11291246D02*
X17251015Y-11272198D01*
X17489111Y-11386484D02*
X17489111Y-11186484D01*
X17574825Y-11386484D02*
X17574825Y-11281722D01*
X17574825Y-11281722D02*
X17565301Y-11262674D01*
X17565301Y-11262674D02*
X17546253Y-11253150D01*
X17546253Y-11253150D02*
X17517682Y-11253150D01*
X17517682Y-11253150D02*
X17498634Y-11262674D01*
X17498634Y-11262674D02*
X17489111Y-11272198D01*
X17698634Y-11386484D02*
X17679587Y-11376960D01*
X17679587Y-11376960D02*
X17670063Y-11367436D01*
X17670063Y-11367436D02*
X17660539Y-11348388D01*
X17660539Y-11348388D02*
X17660539Y-11291246D01*
X17660539Y-11291246D02*
X17670063Y-11272198D01*
X17670063Y-11272198D02*
X17679587Y-11262674D01*
X17679587Y-11262674D02*
X17698634Y-11253150D01*
X17698634Y-11253150D02*
X17727206Y-11253150D01*
X17727206Y-11253150D02*
X17746253Y-11262674D01*
X17746253Y-11262674D02*
X17755777Y-11272198D01*
X17755777Y-11272198D02*
X17765301Y-11291246D01*
X17765301Y-11291246D02*
X17765301Y-11348388D01*
X17765301Y-11348388D02*
X17755777Y-11367436D01*
X17755777Y-11367436D02*
X17746253Y-11376960D01*
X17746253Y-11376960D02*
X17727206Y-11386484D01*
X17727206Y-11386484D02*
X17698634Y-11386484D01*
X17879587Y-11386484D02*
X17860539Y-11376960D01*
X17860539Y-11376960D02*
X17851015Y-11357912D01*
X17851015Y-11357912D02*
X17851015Y-11186484D01*
X18031968Y-11376960D02*
X18012920Y-11386484D01*
X18012920Y-11386484D02*
X17974825Y-11386484D01*
X17974825Y-11386484D02*
X17955777Y-11376960D01*
X17955777Y-11376960D02*
X17946253Y-11357912D01*
X17946253Y-11357912D02*
X17946253Y-11281722D01*
X17946253Y-11281722D02*
X17955777Y-11262674D01*
X17955777Y-11262674D02*
X17974825Y-11253150D01*
X17974825Y-11253150D02*
X18012920Y-11253150D01*
X18012920Y-11253150D02*
X18031968Y-11262674D01*
X18031968Y-11262674D02*
X18041492Y-11281722D01*
X18041492Y-11281722D02*
X18041492Y-11300769D01*
X18041492Y-11300769D02*
X17946253Y-11319817D01*
X18117682Y-11376960D02*
X18136730Y-11386484D01*
X18136730Y-11386484D02*
X18174825Y-11386484D01*
X18174825Y-11386484D02*
X18193873Y-11376960D01*
X18193873Y-11376960D02*
X18203396Y-11357912D01*
X18203396Y-11357912D02*
X18203396Y-11348388D01*
X18203396Y-11348388D02*
X18193873Y-11329341D01*
X18193873Y-11329341D02*
X18174825Y-11319817D01*
X18174825Y-11319817D02*
X18146253Y-11319817D01*
X18146253Y-11319817D02*
X18127206Y-11310293D01*
X18127206Y-11310293D02*
X18117682Y-11291246D01*
X18117682Y-11291246D02*
X18117682Y-11281722D01*
X18117682Y-11281722D02*
X18127206Y-11262674D01*
X18127206Y-11262674D02*
X18146253Y-11253150D01*
X18146253Y-11253150D02*
X18174825Y-11253150D01*
X18174825Y-11253150D02*
X18193873Y-11262674D01*
X18270063Y-11462674D02*
X18279587Y-11453150D01*
X18279587Y-11453150D02*
X18298634Y-11424579D01*
X18298634Y-11424579D02*
X18308158Y-11405531D01*
X18308158Y-11405531D02*
X18317682Y-11376960D01*
X18317682Y-11376960D02*
X18327206Y-11329341D01*
X18327206Y-11329341D02*
X18327206Y-11291246D01*
X18327206Y-11291246D02*
X18317682Y-11243627D01*
X18317682Y-11243627D02*
X18308158Y-11215055D01*
X18308158Y-11215055D02*
X18298634Y-11196008D01*
X18298634Y-11196008D02*
X18279587Y-11167436D01*
X18279587Y-11167436D02*
X18270063Y-11157912D01*
D10*
X13495000Y-11559000D02*
G75*
G02*
X13395000Y-11559000I-50000J0D01*
G01*
X13395000Y-11559000D02*
G75*
G02*
X13495000Y-11559000I50000J0D01*
G01*
D11*
X13860539Y-11650484D02*
X13746253Y-11650484D01*
X13803396Y-11650484D02*
X13803396Y-11450484D01*
X13803396Y-11450484D02*
X13784348Y-11479055D01*
X13784348Y-11479055D02*
X13765301Y-11498103D01*
X13765301Y-11498103D02*
X13746253Y-11507627D01*
X13946253Y-11631436D02*
X13955777Y-11640960D01*
X13955777Y-11640960D02*
X13946253Y-11650484D01*
X13946253Y-11650484D02*
X13936729Y-11640960D01*
X13936729Y-11640960D02*
X13946253Y-11631436D01*
X13946253Y-11631436D02*
X13946253Y-11650484D01*
X14079586Y-11450484D02*
X14098634Y-11450484D01*
X14098634Y-11450484D02*
X14117682Y-11460008D01*
X14117682Y-11460008D02*
X14127205Y-11469531D01*
X14127205Y-11469531D02*
X14136729Y-11488579D01*
X14136729Y-11488579D02*
X14146253Y-11526674D01*
X14146253Y-11526674D02*
X14146253Y-11574293D01*
X14146253Y-11574293D02*
X14136729Y-11612388D01*
X14136729Y-11612388D02*
X14127205Y-11631436D01*
X14127205Y-11631436D02*
X14117682Y-11640960D01*
X14117682Y-11640960D02*
X14098634Y-11650484D01*
X14098634Y-11650484D02*
X14079586Y-11650484D01*
X14079586Y-11650484D02*
X14060539Y-11640960D01*
X14060539Y-11640960D02*
X14051015Y-11631436D01*
X14051015Y-11631436D02*
X14041491Y-11612388D01*
X14041491Y-11612388D02*
X14031967Y-11574293D01*
X14031967Y-11574293D02*
X14031967Y-11526674D01*
X14031967Y-11526674D02*
X14041491Y-11488579D01*
X14041491Y-11488579D02*
X14051015Y-11469531D01*
X14051015Y-11469531D02*
X14060539Y-11460008D01*
X14060539Y-11460008D02*
X14079586Y-11450484D01*
X14270062Y-11450484D02*
X14289110Y-11450484D01*
X14289110Y-11450484D02*
X14308158Y-11460008D01*
X14308158Y-11460008D02*
X14317682Y-11469531D01*
X14317682Y-11469531D02*
X14327205Y-11488579D01*
X14327205Y-11488579D02*
X14336729Y-11526674D01*
X14336729Y-11526674D02*
X14336729Y-11574293D01*
X14336729Y-11574293D02*
X14327205Y-11612388D01*
X14327205Y-11612388D02*
X14317682Y-11631436D01*
X14317682Y-11631436D02*
X14308158Y-11640960D01*
X14308158Y-11640960D02*
X14289110Y-11650484D01*
X14289110Y-11650484D02*
X14270062Y-11650484D01*
X14270062Y-11650484D02*
X14251015Y-11640960D01*
X14251015Y-11640960D02*
X14241491Y-11631436D01*
X14241491Y-11631436D02*
X14231967Y-11612388D01*
X14231967Y-11612388D02*
X14222443Y-11574293D01*
X14222443Y-11574293D02*
X14222443Y-11526674D01*
X14222443Y-11526674D02*
X14231967Y-11488579D01*
X14231967Y-11488579D02*
X14241491Y-11469531D01*
X14241491Y-11469531D02*
X14251015Y-11460008D01*
X14251015Y-11460008D02*
X14270062Y-11450484D01*
X14460539Y-11450484D02*
X14479586Y-11450484D01*
X14479586Y-11450484D02*
X14498634Y-11460008D01*
X14498634Y-11460008D02*
X14508158Y-11469531D01*
X14508158Y-11469531D02*
X14517682Y-11488579D01*
X14517682Y-11488579D02*
X14527205Y-11526674D01*
X14527205Y-11526674D02*
X14527205Y-11574293D01*
X14527205Y-11574293D02*
X14517682Y-11612388D01*
X14517682Y-11612388D02*
X14508158Y-11631436D01*
X14508158Y-11631436D02*
X14498634Y-11640960D01*
X14498634Y-11640960D02*
X14479586Y-11650484D01*
X14479586Y-11650484D02*
X14460539Y-11650484D01*
X14460539Y-11650484D02*
X14441491Y-11640960D01*
X14441491Y-11640960D02*
X14431967Y-11631436D01*
X14431967Y-11631436D02*
X14422443Y-11612388D01*
X14422443Y-11612388D02*
X14412920Y-11574293D01*
X14412920Y-11574293D02*
X14412920Y-11526674D01*
X14412920Y-11526674D02*
X14422443Y-11488579D01*
X14422443Y-11488579D02*
X14431967Y-11469531D01*
X14431967Y-11469531D02*
X14441491Y-11460008D01*
X14441491Y-11460008D02*
X14460539Y-11450484D01*
X14612920Y-11650484D02*
X14612920Y-11517150D01*
X14612920Y-11536198D02*
X14622443Y-11526674D01*
X14622443Y-11526674D02*
X14641491Y-11517150D01*
X14641491Y-11517150D02*
X14670063Y-11517150D01*
X14670063Y-11517150D02*
X14689110Y-11526674D01*
X14689110Y-11526674D02*
X14698634Y-11545722D01*
X14698634Y-11545722D02*
X14698634Y-11650484D01*
X14698634Y-11545722D02*
X14708158Y-11526674D01*
X14708158Y-11526674D02*
X14727205Y-11517150D01*
X14727205Y-11517150D02*
X14755777Y-11517150D01*
X14755777Y-11517150D02*
X14774824Y-11526674D01*
X14774824Y-11526674D02*
X14784348Y-11545722D01*
X14784348Y-11545722D02*
X14784348Y-11650484D01*
X14879586Y-11650484D02*
X14879586Y-11517150D01*
X14879586Y-11536198D02*
X14889110Y-11526674D01*
X14889110Y-11526674D02*
X14908158Y-11517150D01*
X14908158Y-11517150D02*
X14936729Y-11517150D01*
X14936729Y-11517150D02*
X14955777Y-11526674D01*
X14955777Y-11526674D02*
X14965301Y-11545722D01*
X14965301Y-11545722D02*
X14965301Y-11650484D01*
X14965301Y-11545722D02*
X14974824Y-11526674D01*
X14974824Y-11526674D02*
X14993872Y-11517150D01*
X14993872Y-11517150D02*
X15022443Y-11517150D01*
X15022443Y-11517150D02*
X15041491Y-11526674D01*
X15041491Y-11526674D02*
X15051015Y-11545722D01*
X15051015Y-11545722D02*
X15051015Y-11650484D01*
X15441491Y-11440960D02*
X15270063Y-11698103D01*
X15698634Y-11450484D02*
X15717682Y-11450484D01*
X15717682Y-11450484D02*
X15736729Y-11460008D01*
X15736729Y-11460008D02*
X15746253Y-11469531D01*
X15746253Y-11469531D02*
X15755777Y-11488579D01*
X15755777Y-11488579D02*
X15765301Y-11526674D01*
X15765301Y-11526674D02*
X15765301Y-11574293D01*
X15765301Y-11574293D02*
X15755777Y-11612388D01*
X15755777Y-11612388D02*
X15746253Y-11631436D01*
X15746253Y-11631436D02*
X15736729Y-11640960D01*
X15736729Y-11640960D02*
X15717682Y-11650484D01*
X15717682Y-11650484D02*
X15698634Y-11650484D01*
X15698634Y-11650484D02*
X15679586Y-11640960D01*
X15679586Y-11640960D02*
X15670063Y-11631436D01*
X15670063Y-11631436D02*
X15660539Y-11612388D01*
X15660539Y-11612388D02*
X15651015Y-11574293D01*
X15651015Y-11574293D02*
X15651015Y-11526674D01*
X15651015Y-11526674D02*
X15660539Y-11488579D01*
X15660539Y-11488579D02*
X15670063Y-11469531D01*
X15670063Y-11469531D02*
X15679586Y-11460008D01*
X15679586Y-11460008D02*
X15698634Y-11450484D01*
X15851015Y-11631436D02*
X15860539Y-11640960D01*
X15860539Y-11640960D02*
X15851015Y-11650484D01*
X15851015Y-11650484D02*
X15841491Y-11640960D01*
X15841491Y-11640960D02*
X15851015Y-11631436D01*
X15851015Y-11631436D02*
X15851015Y-11650484D01*
X15984348Y-11450484D02*
X16003396Y-11450484D01*
X16003396Y-11450484D02*
X16022444Y-11460008D01*
X16022444Y-11460008D02*
X16031967Y-11469531D01*
X16031967Y-11469531D02*
X16041491Y-11488579D01*
X16041491Y-11488579D02*
X16051015Y-11526674D01*
X16051015Y-11526674D02*
X16051015Y-11574293D01*
X16051015Y-11574293D02*
X16041491Y-11612388D01*
X16041491Y-11612388D02*
X16031967Y-11631436D01*
X16031967Y-11631436D02*
X16022444Y-11640960D01*
X16022444Y-11640960D02*
X16003396Y-11650484D01*
X16003396Y-11650484D02*
X15984348Y-11650484D01*
X15984348Y-11650484D02*
X15965301Y-11640960D01*
X15965301Y-11640960D02*
X15955777Y-11631436D01*
X15955777Y-11631436D02*
X15946253Y-11612388D01*
X15946253Y-11612388D02*
X15936729Y-11574293D01*
X15936729Y-11574293D02*
X15936729Y-11526674D01*
X15936729Y-11526674D02*
X15946253Y-11488579D01*
X15946253Y-11488579D02*
X15955777Y-11469531D01*
X15955777Y-11469531D02*
X15965301Y-11460008D01*
X15965301Y-11460008D02*
X15984348Y-11450484D01*
X16117682Y-11450484D02*
X16241491Y-11450484D01*
X16241491Y-11450484D02*
X16174825Y-11526674D01*
X16174825Y-11526674D02*
X16203396Y-11526674D01*
X16203396Y-11526674D02*
X16222444Y-11536198D01*
X16222444Y-11536198D02*
X16231967Y-11545722D01*
X16231967Y-11545722D02*
X16241491Y-11564769D01*
X16241491Y-11564769D02*
X16241491Y-11612388D01*
X16241491Y-11612388D02*
X16231967Y-11631436D01*
X16231967Y-11631436D02*
X16222444Y-11640960D01*
X16222444Y-11640960D02*
X16203396Y-11650484D01*
X16203396Y-11650484D02*
X16146253Y-11650484D01*
X16146253Y-11650484D02*
X16127206Y-11640960D01*
X16127206Y-11640960D02*
X16117682Y-11631436D01*
X16336729Y-11650484D02*
X16374825Y-11650484D01*
X16374825Y-11650484D02*
X16393872Y-11640960D01*
X16393872Y-11640960D02*
X16403396Y-11631436D01*
X16403396Y-11631436D02*
X16422444Y-11602865D01*
X16422444Y-11602865D02*
X16431967Y-11564769D01*
X16431967Y-11564769D02*
X16431967Y-11488579D01*
X16431967Y-11488579D02*
X16422444Y-11469531D01*
X16422444Y-11469531D02*
X16412920Y-11460008D01*
X16412920Y-11460008D02*
X16393872Y-11450484D01*
X16393872Y-11450484D02*
X16355777Y-11450484D01*
X16355777Y-11450484D02*
X16336729Y-11460008D01*
X16336729Y-11460008D02*
X16327206Y-11469531D01*
X16327206Y-11469531D02*
X16317682Y-11488579D01*
X16317682Y-11488579D02*
X16317682Y-11536198D01*
X16317682Y-11536198D02*
X16327206Y-11555246D01*
X16327206Y-11555246D02*
X16336729Y-11564769D01*
X16336729Y-11564769D02*
X16355777Y-11574293D01*
X16355777Y-11574293D02*
X16393872Y-11574293D01*
X16393872Y-11574293D02*
X16412920Y-11564769D01*
X16412920Y-11564769D02*
X16422444Y-11555246D01*
X16422444Y-11555246D02*
X16431967Y-11536198D01*
X16603396Y-11517150D02*
X16603396Y-11650484D01*
X16555777Y-11440960D02*
X16508158Y-11583817D01*
X16508158Y-11583817D02*
X16631967Y-11583817D01*
X16698634Y-11450484D02*
X16698634Y-11488579D01*
X16774825Y-11450484D02*
X16774825Y-11488579D01*
X17070063Y-11726674D02*
X17060539Y-11717150D01*
X17060539Y-11717150D02*
X17041491Y-11688579D01*
X17041491Y-11688579D02*
X17031968Y-11669531D01*
X17031968Y-11669531D02*
X17022444Y-11640960D01*
X17022444Y-11640960D02*
X17012920Y-11593341D01*
X17012920Y-11593341D02*
X17012920Y-11555246D01*
X17012920Y-11555246D02*
X17022444Y-11507627D01*
X17022444Y-11507627D02*
X17031968Y-11479055D01*
X17031968Y-11479055D02*
X17041491Y-11460008D01*
X17041491Y-11460008D02*
X17060539Y-11431436D01*
X17060539Y-11431436D02*
X17070063Y-11421912D01*
X17155777Y-11650484D02*
X17193872Y-11650484D01*
X17193872Y-11650484D02*
X17212920Y-11640960D01*
X17212920Y-11640960D02*
X17222444Y-11631436D01*
X17222444Y-11631436D02*
X17241491Y-11602865D01*
X17241491Y-11602865D02*
X17251015Y-11564769D01*
X17251015Y-11564769D02*
X17251015Y-11488579D01*
X17251015Y-11488579D02*
X17241491Y-11469531D01*
X17241491Y-11469531D02*
X17231968Y-11460008D01*
X17231968Y-11460008D02*
X17212920Y-11450484D01*
X17212920Y-11450484D02*
X17174825Y-11450484D01*
X17174825Y-11450484D02*
X17155777Y-11460008D01*
X17155777Y-11460008D02*
X17146253Y-11469531D01*
X17146253Y-11469531D02*
X17136730Y-11488579D01*
X17136730Y-11488579D02*
X17136730Y-11536198D01*
X17136730Y-11536198D02*
X17146253Y-11555246D01*
X17146253Y-11555246D02*
X17155777Y-11564769D01*
X17155777Y-11564769D02*
X17174825Y-11574293D01*
X17174825Y-11574293D02*
X17212920Y-11574293D01*
X17212920Y-11574293D02*
X17231968Y-11564769D01*
X17231968Y-11564769D02*
X17241491Y-11555246D01*
X17241491Y-11555246D02*
X17251015Y-11536198D01*
X17489111Y-11650484D02*
X17489111Y-11450484D01*
X17574825Y-11650484D02*
X17574825Y-11545722D01*
X17574825Y-11545722D02*
X17565301Y-11526674D01*
X17565301Y-11526674D02*
X17546253Y-11517150D01*
X17546253Y-11517150D02*
X17517682Y-11517150D01*
X17517682Y-11517150D02*
X17498634Y-11526674D01*
X17498634Y-11526674D02*
X17489111Y-11536198D01*
X17698634Y-11650484D02*
X17679587Y-11640960D01*
X17679587Y-11640960D02*
X17670063Y-11631436D01*
X17670063Y-11631436D02*
X17660539Y-11612388D01*
X17660539Y-11612388D02*
X17660539Y-11555246D01*
X17660539Y-11555246D02*
X17670063Y-11536198D01*
X17670063Y-11536198D02*
X17679587Y-11526674D01*
X17679587Y-11526674D02*
X17698634Y-11517150D01*
X17698634Y-11517150D02*
X17727206Y-11517150D01*
X17727206Y-11517150D02*
X17746253Y-11526674D01*
X17746253Y-11526674D02*
X17755777Y-11536198D01*
X17755777Y-11536198D02*
X17765301Y-11555246D01*
X17765301Y-11555246D02*
X17765301Y-11612388D01*
X17765301Y-11612388D02*
X17755777Y-11631436D01*
X17755777Y-11631436D02*
X17746253Y-11640960D01*
X17746253Y-11640960D02*
X17727206Y-11650484D01*
X17727206Y-11650484D02*
X17698634Y-11650484D01*
X17879587Y-11650484D02*
X17860539Y-11640960D01*
X17860539Y-11640960D02*
X17851015Y-11621912D01*
X17851015Y-11621912D02*
X17851015Y-11450484D01*
X18031968Y-11640960D02*
X18012920Y-11650484D01*
X18012920Y-11650484D02*
X17974825Y-11650484D01*
X17974825Y-11650484D02*
X17955777Y-11640960D01*
X17955777Y-11640960D02*
X17946253Y-11621912D01*
X17946253Y-11621912D02*
X17946253Y-11545722D01*
X17946253Y-11545722D02*
X17955777Y-11526674D01*
X17955777Y-11526674D02*
X17974825Y-11517150D01*
X17974825Y-11517150D02*
X18012920Y-11517150D01*
X18012920Y-11517150D02*
X18031968Y-11526674D01*
X18031968Y-11526674D02*
X18041492Y-11545722D01*
X18041492Y-11545722D02*
X18041492Y-11564769D01*
X18041492Y-11564769D02*
X17946253Y-11583817D01*
X18117682Y-11640960D02*
X18136730Y-11650484D01*
X18136730Y-11650484D02*
X18174825Y-11650484D01*
X18174825Y-11650484D02*
X18193873Y-11640960D01*
X18193873Y-11640960D02*
X18203396Y-11621912D01*
X18203396Y-11621912D02*
X18203396Y-11612388D01*
X18203396Y-11612388D02*
X18193873Y-11593341D01*
X18193873Y-11593341D02*
X18174825Y-11583817D01*
X18174825Y-11583817D02*
X18146253Y-11583817D01*
X18146253Y-11583817D02*
X18127206Y-11574293D01*
X18127206Y-11574293D02*
X18117682Y-11555246D01*
X18117682Y-11555246D02*
X18117682Y-11545722D01*
X18117682Y-11545722D02*
X18127206Y-11526674D01*
X18127206Y-11526674D02*
X18146253Y-11517150D01*
X18146253Y-11517150D02*
X18174825Y-11517150D01*
X18174825Y-11517150D02*
X18193873Y-11526674D01*
X18270063Y-11726674D02*
X18279587Y-11717150D01*
X18279587Y-11717150D02*
X18298634Y-11688579D01*
X18298634Y-11688579D02*
X18308158Y-11669531D01*
X18308158Y-11669531D02*
X18317682Y-11640960D01*
X18317682Y-11640960D02*
X18327206Y-11593341D01*
X18327206Y-11593341D02*
X18327206Y-11555246D01*
X18327206Y-11555246D02*
X18317682Y-11507627D01*
X18317682Y-11507627D02*
X18308158Y-11479055D01*
X18308158Y-11479055D02*
X18298634Y-11460008D01*
X18298634Y-11460008D02*
X18279587Y-11431436D01*
X18279587Y-11431436D02*
X18270063Y-11421912D01*
X13395000Y-11723000D02*
X13395000Y-11923000D01*
X13295000Y-11823000D02*
X13495000Y-11823000D01*
X13746253Y-11733531D02*
X13755777Y-11724008D01*
X13755777Y-11724008D02*
X13774824Y-11714484D01*
X13774824Y-11714484D02*
X13822443Y-11714484D01*
X13822443Y-11714484D02*
X13841491Y-11724008D01*
X13841491Y-11724008D02*
X13851015Y-11733531D01*
X13851015Y-11733531D02*
X13860539Y-11752579D01*
X13860539Y-11752579D02*
X13860539Y-11771627D01*
X13860539Y-11771627D02*
X13851015Y-11800198D01*
X13851015Y-11800198D02*
X13736729Y-11914484D01*
X13736729Y-11914484D02*
X13860539Y-11914484D01*
X13946253Y-11895436D02*
X13955777Y-11904960D01*
X13955777Y-11904960D02*
X13946253Y-11914484D01*
X13946253Y-11914484D02*
X13936729Y-11904960D01*
X13936729Y-11904960D02*
X13946253Y-11895436D01*
X13946253Y-11895436D02*
X13946253Y-11914484D01*
X14031967Y-11733531D02*
X14041491Y-11724008D01*
X14041491Y-11724008D02*
X14060539Y-11714484D01*
X14060539Y-11714484D02*
X14108158Y-11714484D01*
X14108158Y-11714484D02*
X14127205Y-11724008D01*
X14127205Y-11724008D02*
X14136729Y-11733531D01*
X14136729Y-11733531D02*
X14146253Y-11752579D01*
X14146253Y-11752579D02*
X14146253Y-11771627D01*
X14146253Y-11771627D02*
X14136729Y-11800198D01*
X14136729Y-11800198D02*
X14022443Y-11914484D01*
X14022443Y-11914484D02*
X14146253Y-11914484D01*
X14270062Y-11714484D02*
X14289110Y-11714484D01*
X14289110Y-11714484D02*
X14308158Y-11724008D01*
X14308158Y-11724008D02*
X14317682Y-11733531D01*
X14317682Y-11733531D02*
X14327205Y-11752579D01*
X14327205Y-11752579D02*
X14336729Y-11790674D01*
X14336729Y-11790674D02*
X14336729Y-11838293D01*
X14336729Y-11838293D02*
X14327205Y-11876388D01*
X14327205Y-11876388D02*
X14317682Y-11895436D01*
X14317682Y-11895436D02*
X14308158Y-11904960D01*
X14308158Y-11904960D02*
X14289110Y-11914484D01*
X14289110Y-11914484D02*
X14270062Y-11914484D01*
X14270062Y-11914484D02*
X14251015Y-11904960D01*
X14251015Y-11904960D02*
X14241491Y-11895436D01*
X14241491Y-11895436D02*
X14231967Y-11876388D01*
X14231967Y-11876388D02*
X14222443Y-11838293D01*
X14222443Y-11838293D02*
X14222443Y-11790674D01*
X14222443Y-11790674D02*
X14231967Y-11752579D01*
X14231967Y-11752579D02*
X14241491Y-11733531D01*
X14241491Y-11733531D02*
X14251015Y-11724008D01*
X14251015Y-11724008D02*
X14270062Y-11714484D01*
X14460539Y-11714484D02*
X14479586Y-11714484D01*
X14479586Y-11714484D02*
X14498634Y-11724008D01*
X14498634Y-11724008D02*
X14508158Y-11733531D01*
X14508158Y-11733531D02*
X14517682Y-11752579D01*
X14517682Y-11752579D02*
X14527205Y-11790674D01*
X14527205Y-11790674D02*
X14527205Y-11838293D01*
X14527205Y-11838293D02*
X14517682Y-11876388D01*
X14517682Y-11876388D02*
X14508158Y-11895436D01*
X14508158Y-11895436D02*
X14498634Y-11904960D01*
X14498634Y-11904960D02*
X14479586Y-11914484D01*
X14479586Y-11914484D02*
X14460539Y-11914484D01*
X14460539Y-11914484D02*
X14441491Y-11904960D01*
X14441491Y-11904960D02*
X14431967Y-11895436D01*
X14431967Y-11895436D02*
X14422443Y-11876388D01*
X14422443Y-11876388D02*
X14412920Y-11838293D01*
X14412920Y-11838293D02*
X14412920Y-11790674D01*
X14412920Y-11790674D02*
X14422443Y-11752579D01*
X14422443Y-11752579D02*
X14431967Y-11733531D01*
X14431967Y-11733531D02*
X14441491Y-11724008D01*
X14441491Y-11724008D02*
X14460539Y-11714484D01*
X14612920Y-11914484D02*
X14612920Y-11781150D01*
X14612920Y-11800198D02*
X14622443Y-11790674D01*
X14622443Y-11790674D02*
X14641491Y-11781150D01*
X14641491Y-11781150D02*
X14670063Y-11781150D01*
X14670063Y-11781150D02*
X14689110Y-11790674D01*
X14689110Y-11790674D02*
X14698634Y-11809722D01*
X14698634Y-11809722D02*
X14698634Y-11914484D01*
X14698634Y-11809722D02*
X14708158Y-11790674D01*
X14708158Y-11790674D02*
X14727205Y-11781150D01*
X14727205Y-11781150D02*
X14755777Y-11781150D01*
X14755777Y-11781150D02*
X14774824Y-11790674D01*
X14774824Y-11790674D02*
X14784348Y-11809722D01*
X14784348Y-11809722D02*
X14784348Y-11914484D01*
X14879586Y-11914484D02*
X14879586Y-11781150D01*
X14879586Y-11800198D02*
X14889110Y-11790674D01*
X14889110Y-11790674D02*
X14908158Y-11781150D01*
X14908158Y-11781150D02*
X14936729Y-11781150D01*
X14936729Y-11781150D02*
X14955777Y-11790674D01*
X14955777Y-11790674D02*
X14965301Y-11809722D01*
X14965301Y-11809722D02*
X14965301Y-11914484D01*
X14965301Y-11809722D02*
X14974824Y-11790674D01*
X14974824Y-11790674D02*
X14993872Y-11781150D01*
X14993872Y-11781150D02*
X15022443Y-11781150D01*
X15022443Y-11781150D02*
X15041491Y-11790674D01*
X15041491Y-11790674D02*
X15051015Y-11809722D01*
X15051015Y-11809722D02*
X15051015Y-11914484D01*
X15441491Y-11704960D02*
X15270063Y-11962103D01*
X15698634Y-11714484D02*
X15717682Y-11714484D01*
X15717682Y-11714484D02*
X15736729Y-11724008D01*
X15736729Y-11724008D02*
X15746253Y-11733531D01*
X15746253Y-11733531D02*
X15755777Y-11752579D01*
X15755777Y-11752579D02*
X15765301Y-11790674D01*
X15765301Y-11790674D02*
X15765301Y-11838293D01*
X15765301Y-11838293D02*
X15755777Y-11876388D01*
X15755777Y-11876388D02*
X15746253Y-11895436D01*
X15746253Y-11895436D02*
X15736729Y-11904960D01*
X15736729Y-11904960D02*
X15717682Y-11914484D01*
X15717682Y-11914484D02*
X15698634Y-11914484D01*
X15698634Y-11914484D02*
X15679586Y-11904960D01*
X15679586Y-11904960D02*
X15670063Y-11895436D01*
X15670063Y-11895436D02*
X15660539Y-11876388D01*
X15660539Y-11876388D02*
X15651015Y-11838293D01*
X15651015Y-11838293D02*
X15651015Y-11790674D01*
X15651015Y-11790674D02*
X15660539Y-11752579D01*
X15660539Y-11752579D02*
X15670063Y-11733531D01*
X15670063Y-11733531D02*
X15679586Y-11724008D01*
X15679586Y-11724008D02*
X15698634Y-11714484D01*
X15851015Y-11895436D02*
X15860539Y-11904960D01*
X15860539Y-11904960D02*
X15851015Y-11914484D01*
X15851015Y-11914484D02*
X15841491Y-11904960D01*
X15841491Y-11904960D02*
X15851015Y-11895436D01*
X15851015Y-11895436D02*
X15851015Y-11914484D01*
X15984348Y-11714484D02*
X16003396Y-11714484D01*
X16003396Y-11714484D02*
X16022444Y-11724008D01*
X16022444Y-11724008D02*
X16031967Y-11733531D01*
X16031967Y-11733531D02*
X16041491Y-11752579D01*
X16041491Y-11752579D02*
X16051015Y-11790674D01*
X16051015Y-11790674D02*
X16051015Y-11838293D01*
X16051015Y-11838293D02*
X16041491Y-11876388D01*
X16041491Y-11876388D02*
X16031967Y-11895436D01*
X16031967Y-11895436D02*
X16022444Y-11904960D01*
X16022444Y-11904960D02*
X16003396Y-11914484D01*
X16003396Y-11914484D02*
X15984348Y-11914484D01*
X15984348Y-11914484D02*
X15965301Y-11904960D01*
X15965301Y-11904960D02*
X15955777Y-11895436D01*
X15955777Y-11895436D02*
X15946253Y-11876388D01*
X15946253Y-11876388D02*
X15936729Y-11838293D01*
X15936729Y-11838293D02*
X15936729Y-11790674D01*
X15936729Y-11790674D02*
X15946253Y-11752579D01*
X15946253Y-11752579D02*
X15955777Y-11733531D01*
X15955777Y-11733531D02*
X15965301Y-11724008D01*
X15965301Y-11724008D02*
X15984348Y-11714484D01*
X16165301Y-11800198D02*
X16146253Y-11790674D01*
X16146253Y-11790674D02*
X16136729Y-11781150D01*
X16136729Y-11781150D02*
X16127206Y-11762103D01*
X16127206Y-11762103D02*
X16127206Y-11752579D01*
X16127206Y-11752579D02*
X16136729Y-11733531D01*
X16136729Y-11733531D02*
X16146253Y-11724008D01*
X16146253Y-11724008D02*
X16165301Y-11714484D01*
X16165301Y-11714484D02*
X16203396Y-11714484D01*
X16203396Y-11714484D02*
X16222444Y-11724008D01*
X16222444Y-11724008D02*
X16231967Y-11733531D01*
X16231967Y-11733531D02*
X16241491Y-11752579D01*
X16241491Y-11752579D02*
X16241491Y-11762103D01*
X16241491Y-11762103D02*
X16231967Y-11781150D01*
X16231967Y-11781150D02*
X16222444Y-11790674D01*
X16222444Y-11790674D02*
X16203396Y-11800198D01*
X16203396Y-11800198D02*
X16165301Y-11800198D01*
X16165301Y-11800198D02*
X16146253Y-11809722D01*
X16146253Y-11809722D02*
X16136729Y-11819246D01*
X16136729Y-11819246D02*
X16127206Y-11838293D01*
X16127206Y-11838293D02*
X16127206Y-11876388D01*
X16127206Y-11876388D02*
X16136729Y-11895436D01*
X16136729Y-11895436D02*
X16146253Y-11904960D01*
X16146253Y-11904960D02*
X16165301Y-11914484D01*
X16165301Y-11914484D02*
X16203396Y-11914484D01*
X16203396Y-11914484D02*
X16222444Y-11904960D01*
X16222444Y-11904960D02*
X16231967Y-11895436D01*
X16231967Y-11895436D02*
X16241491Y-11876388D01*
X16241491Y-11876388D02*
X16241491Y-11838293D01*
X16241491Y-11838293D02*
X16231967Y-11819246D01*
X16231967Y-11819246D02*
X16222444Y-11809722D01*
X16222444Y-11809722D02*
X16203396Y-11800198D01*
X16412920Y-11714484D02*
X16374825Y-11714484D01*
X16374825Y-11714484D02*
X16355777Y-11724008D01*
X16355777Y-11724008D02*
X16346253Y-11733531D01*
X16346253Y-11733531D02*
X16327206Y-11762103D01*
X16327206Y-11762103D02*
X16317682Y-11800198D01*
X16317682Y-11800198D02*
X16317682Y-11876388D01*
X16317682Y-11876388D02*
X16327206Y-11895436D01*
X16327206Y-11895436D02*
X16336729Y-11904960D01*
X16336729Y-11904960D02*
X16355777Y-11914484D01*
X16355777Y-11914484D02*
X16393872Y-11914484D01*
X16393872Y-11914484D02*
X16412920Y-11904960D01*
X16412920Y-11904960D02*
X16422444Y-11895436D01*
X16422444Y-11895436D02*
X16431967Y-11876388D01*
X16431967Y-11876388D02*
X16431967Y-11828769D01*
X16431967Y-11828769D02*
X16422444Y-11809722D01*
X16422444Y-11809722D02*
X16412920Y-11800198D01*
X16412920Y-11800198D02*
X16393872Y-11790674D01*
X16393872Y-11790674D02*
X16355777Y-11790674D01*
X16355777Y-11790674D02*
X16336729Y-11800198D01*
X16336729Y-11800198D02*
X16327206Y-11809722D01*
X16327206Y-11809722D02*
X16317682Y-11828769D01*
X16603396Y-11714484D02*
X16565301Y-11714484D01*
X16565301Y-11714484D02*
X16546253Y-11724008D01*
X16546253Y-11724008D02*
X16536729Y-11733531D01*
X16536729Y-11733531D02*
X16517682Y-11762103D01*
X16517682Y-11762103D02*
X16508158Y-11800198D01*
X16508158Y-11800198D02*
X16508158Y-11876388D01*
X16508158Y-11876388D02*
X16517682Y-11895436D01*
X16517682Y-11895436D02*
X16527206Y-11904960D01*
X16527206Y-11904960D02*
X16546253Y-11914484D01*
X16546253Y-11914484D02*
X16584348Y-11914484D01*
X16584348Y-11914484D02*
X16603396Y-11904960D01*
X16603396Y-11904960D02*
X16612920Y-11895436D01*
X16612920Y-11895436D02*
X16622444Y-11876388D01*
X16622444Y-11876388D02*
X16622444Y-11828769D01*
X16622444Y-11828769D02*
X16612920Y-11809722D01*
X16612920Y-11809722D02*
X16603396Y-11800198D01*
X16603396Y-11800198D02*
X16584348Y-11790674D01*
X16584348Y-11790674D02*
X16546253Y-11790674D01*
X16546253Y-11790674D02*
X16527206Y-11800198D01*
X16527206Y-11800198D02*
X16517682Y-11809722D01*
X16517682Y-11809722D02*
X16508158Y-11828769D01*
X16698634Y-11714484D02*
X16698634Y-11752579D01*
X16774825Y-11714484D02*
X16774825Y-11752579D01*
X17070063Y-11990674D02*
X17060539Y-11981150D01*
X17060539Y-11981150D02*
X17041491Y-11952579D01*
X17041491Y-11952579D02*
X17031968Y-11933531D01*
X17031968Y-11933531D02*
X17022444Y-11904960D01*
X17022444Y-11904960D02*
X17012920Y-11857341D01*
X17012920Y-11857341D02*
X17012920Y-11819246D01*
X17012920Y-11819246D02*
X17022444Y-11771627D01*
X17022444Y-11771627D02*
X17031968Y-11743055D01*
X17031968Y-11743055D02*
X17041491Y-11724008D01*
X17041491Y-11724008D02*
X17060539Y-11695436D01*
X17060539Y-11695436D02*
X17070063Y-11685912D01*
X17136730Y-11733531D02*
X17146253Y-11724008D01*
X17146253Y-11724008D02*
X17165301Y-11714484D01*
X17165301Y-11714484D02*
X17212920Y-11714484D01*
X17212920Y-11714484D02*
X17231968Y-11724008D01*
X17231968Y-11724008D02*
X17241491Y-11733531D01*
X17241491Y-11733531D02*
X17251015Y-11752579D01*
X17251015Y-11752579D02*
X17251015Y-11771627D01*
X17251015Y-11771627D02*
X17241491Y-11800198D01*
X17241491Y-11800198D02*
X17127206Y-11914484D01*
X17127206Y-11914484D02*
X17251015Y-11914484D01*
X17489111Y-11914484D02*
X17489111Y-11714484D01*
X17574825Y-11914484D02*
X17574825Y-11809722D01*
X17574825Y-11809722D02*
X17565301Y-11790674D01*
X17565301Y-11790674D02*
X17546253Y-11781150D01*
X17546253Y-11781150D02*
X17517682Y-11781150D01*
X17517682Y-11781150D02*
X17498634Y-11790674D01*
X17498634Y-11790674D02*
X17489111Y-11800198D01*
X17698634Y-11914484D02*
X17679587Y-11904960D01*
X17679587Y-11904960D02*
X17670063Y-11895436D01*
X17670063Y-11895436D02*
X17660539Y-11876388D01*
X17660539Y-11876388D02*
X17660539Y-11819246D01*
X17660539Y-11819246D02*
X17670063Y-11800198D01*
X17670063Y-11800198D02*
X17679587Y-11790674D01*
X17679587Y-11790674D02*
X17698634Y-11781150D01*
X17698634Y-11781150D02*
X17727206Y-11781150D01*
X17727206Y-11781150D02*
X17746253Y-11790674D01*
X17746253Y-11790674D02*
X17755777Y-11800198D01*
X17755777Y-11800198D02*
X17765301Y-11819246D01*
X17765301Y-11819246D02*
X17765301Y-11876388D01*
X17765301Y-11876388D02*
X17755777Y-11895436D01*
X17755777Y-11895436D02*
X17746253Y-11904960D01*
X17746253Y-11904960D02*
X17727206Y-11914484D01*
X17727206Y-11914484D02*
X17698634Y-11914484D01*
X17879587Y-11914484D02*
X17860539Y-11904960D01*
X17860539Y-11904960D02*
X17851015Y-11885912D01*
X17851015Y-11885912D02*
X17851015Y-11714484D01*
X18031968Y-11904960D02*
X18012920Y-11914484D01*
X18012920Y-11914484D02*
X17974825Y-11914484D01*
X17974825Y-11914484D02*
X17955777Y-11904960D01*
X17955777Y-11904960D02*
X17946253Y-11885912D01*
X17946253Y-11885912D02*
X17946253Y-11809722D01*
X17946253Y-11809722D02*
X17955777Y-11790674D01*
X17955777Y-11790674D02*
X17974825Y-11781150D01*
X17974825Y-11781150D02*
X18012920Y-11781150D01*
X18012920Y-11781150D02*
X18031968Y-11790674D01*
X18031968Y-11790674D02*
X18041492Y-11809722D01*
X18041492Y-11809722D02*
X18041492Y-11828769D01*
X18041492Y-11828769D02*
X17946253Y-11847817D01*
X18117682Y-11904960D02*
X18136730Y-11914484D01*
X18136730Y-11914484D02*
X18174825Y-11914484D01*
X18174825Y-11914484D02*
X18193873Y-11904960D01*
X18193873Y-11904960D02*
X18203396Y-11885912D01*
X18203396Y-11885912D02*
X18203396Y-11876388D01*
X18203396Y-11876388D02*
X18193873Y-11857341D01*
X18193873Y-11857341D02*
X18174825Y-11847817D01*
X18174825Y-11847817D02*
X18146253Y-11847817D01*
X18146253Y-11847817D02*
X18127206Y-11838293D01*
X18127206Y-11838293D02*
X18117682Y-11819246D01*
X18117682Y-11819246D02*
X18117682Y-11809722D01*
X18117682Y-11809722D02*
X18127206Y-11790674D01*
X18127206Y-11790674D02*
X18146253Y-11781150D01*
X18146253Y-11781150D02*
X18174825Y-11781150D01*
X18174825Y-11781150D02*
X18193873Y-11790674D01*
X18270063Y-11990674D02*
X18279587Y-11981150D01*
X18279587Y-11981150D02*
X18298634Y-11952579D01*
X18298634Y-11952579D02*
X18308158Y-11933531D01*
X18308158Y-11933531D02*
X18317682Y-11904960D01*
X18317682Y-11904960D02*
X18327206Y-11857341D01*
X18327206Y-11857341D02*
X18327206Y-11819246D01*
X18327206Y-11819246D02*
X18317682Y-11771627D01*
X18317682Y-11771627D02*
X18308158Y-11743055D01*
X18308158Y-11743055D02*
X18298634Y-11724008D01*
X18298634Y-11724008D02*
X18279587Y-11695436D01*
X18279587Y-11695436D02*
X18270063Y-11685912D01*
M02*
